<svg width="7" height="11" viewBox="0 0 7 11" fill="none" xmlns="http://www.w3.org/2000/svg">
<path d="M0 9.282C1.18533 8.33 2.114 7.55067 2.786 6.944C3.458 6.328 4.02267 5.68867 4.48 5.026C4.94667 4.354 5.18 3.696 5.18 3.052C5.18 2.44533 5.03067 1.96933 4.732 1.624C4.44267 1.26933 3.97133 1.092 3.318 1.092C2.68333 1.092 2.18867 1.29267 1.834 1.694C1.48867 2.086 1.302 2.61333 1.274 3.276H0.042C0.0793333 2.23067 0.396667 1.42333 0.994 0.854001C1.59133 0.284667 2.36133 0 3.304 0C4.26533 0 5.026 0.266 5.586 0.798001C6.15533 1.33 6.44 2.06267 6.44 2.996C6.44 3.77067 6.20667 4.52667 5.74 5.264C5.28267 5.992 4.76 6.636 4.172 7.196C3.584 7.74667 2.83267 8.39067 1.918 9.128H6.734V10.192H0V9.282Z" fill="#F2F7F5"/>
</svg>
