<svg width="40" height="40" viewBox="0 0 40 40" fill="none" xmlns="http://www.w3.org/2000/svg">
<g clip-path="url(#clip0_36_442)">
<path d="M23.883 33.3333H23.533C22.8276 33.2633 22.1629 32.9703 21.6354 32.4967C21.1079 32.0232 20.7451 31.3938 20.5997 30.7L16.133 10L11.533 20.6667C11.4029 20.9648 11.1884 21.2183 10.9159 21.396C10.6435 21.5737 10.325 21.6678 9.99967 21.6667H4.99967C4.55765 21.6667 4.13372 21.4911 3.82116 21.1785C3.5086 20.866 3.33301 20.442 3.33301 20C3.33301 19.558 3.5086 19.1341 3.82116 18.8215C4.13372 18.5089 4.55765 18.3333 4.99967 18.3333H8.89967L13.083 8.68334C13.3646 8.03578 13.8446 7.49438 14.4537 7.13719C15.0629 6.78001 15.7697 6.62551 16.4724 6.69595C17.175 6.7664 17.8371 7.05816 18.3632 7.52917C18.8893 8.00018 19.2522 8.6261 19.3997 9.31668L23.8663 30L28.4663 19.3667C28.5914 19.0623 28.8037 18.8018 29.0766 18.6179C29.3494 18.434 29.6706 18.335 29.9997 18.3333H34.9997C35.4417 18.3333 35.8656 18.5089 36.1782 18.8215C36.4907 19.1341 36.6663 19.558 36.6663 20C36.6663 20.442 36.4907 20.866 36.1782 21.1785C35.8656 21.4911 35.4417 21.6667 34.9997 21.6667H31.0997L26.9163 31.3167C26.6609 31.9109 26.2381 32.4179 25.6995 32.776C25.1609 33.1341 24.5298 33.3277 23.883 33.3333Z" fill="#FFFFFE"/>
</g>
<defs>
<clipPath id="clip0_36_442">
<rect width="40" height="40" fill="white"/>
</clipPath>
</defs>
</svg>
