<svg width="40" height="40" viewBox="0 0 40 40" fill="none" xmlns="http://www.w3.org/2000/svg">
<g clip-path="url(#clip0_37_997)">
<path d="M23.8835 33.3332H23.5335C22.8281 33.2632 22.1634 32.9702 21.6359 32.4966C21.1084 32.0231 20.7456 31.3937 20.6002 30.6999L16.1335 9.99989L11.5335 20.6666C11.4034 20.9647 11.1889 21.2182 10.9164 21.3959C10.644 21.5736 10.3254 21.6677 10.0002 21.6666H5.00016C4.55814 21.6666 4.13421 21.491 3.82165 21.1784C3.50909 20.8658 3.3335 20.4419 3.3335 19.9999C3.3335 19.5579 3.50909 19.1339 3.82165 18.8214C4.13421 18.5088 4.55814 18.3332 5.00016 18.3332H8.90016L13.0835 8.68322C13.3651 8.03566 13.8451 7.49425 14.4542 7.13707C15.0634 6.77989 15.7702 6.62538 16.4728 6.69583C17.1755 6.76628 17.8376 7.05804 18.3637 7.52905C18.8898 8.00006 19.2527 8.62597 19.4002 9.31656L23.8668 29.9999L28.4668 19.3666C28.5919 19.0622 28.8042 18.8016 29.0771 18.6178C29.3499 18.4339 29.6711 18.3349 30.0002 18.3332H35.0002C35.4422 18.3332 35.8661 18.5088 36.1787 18.8214C36.4912 19.1339 36.6668 19.5579 36.6668 19.9999C36.6668 20.4419 36.4912 20.8658 36.1787 21.1784C35.8661 21.491 35.4422 21.6666 35.0002 21.6666H31.1002L26.9168 31.3166C26.6614 31.9107 26.2386 32.4178 25.7 32.7759C25.1614 33.1339 24.5302 33.3276 23.8835 33.3332Z" fill="#FFFFFE"/>
</g>
<defs>
<clipPath id="clip0_37_997">
<rect width="40" height="40" fill="white"/>
</clipPath>
</defs>
</svg>
