<svg width="40" height="40" viewBox="0 0 40 40" fill="none" xmlns="http://www.w3.org/2000/svg">
<g clip-path="url(#clip0_17_876)">
<path d="M23.8835 33.3333H23.5335C22.8281 33.2633 22.1634 32.9703 21.6359 32.4967C21.1084 32.0232 20.7456 31.3938 20.6002 30.7L16.1335 10L11.5335 20.6667C11.4034 20.9648 11.1889 21.2183 10.9164 21.396C10.644 21.5737 10.3254 21.6678 10.0002 21.6667H5.00016C4.55814 21.6667 4.13421 21.4911 3.82165 21.1785C3.50909 20.866 3.3335 20.442 3.3335 20C3.3335 19.558 3.50909 19.1341 3.82165 18.8215C4.13421 18.5089 4.55814 18.3333 5.00016 18.3333H8.90016L13.0835 8.68334C13.3651 8.03578 13.8451 7.49438 14.4542 7.13719C15.0634 6.78001 15.7702 6.62551 16.4728 6.69595C17.1755 6.7664 17.8376 7.05816 18.3637 7.52917C18.8898 8.00018 19.2527 8.6261 19.4002 9.31668L23.8668 30L28.4668 19.3667C28.5919 19.0623 28.8042 18.8018 29.0771 18.6179C29.3499 18.434 29.6711 18.335 30.0002 18.3333H35.0002C35.4422 18.3333 35.8661 18.5089 36.1787 18.8215C36.4912 19.1341 36.6668 19.558 36.6668 20C36.6668 20.442 36.4912 20.866 36.1787 21.1785C35.8661 21.4911 35.4422 21.6667 35.0002 21.6667H31.1002L26.9168 31.3167C26.6614 31.9109 26.2386 32.4179 25.7 32.776C25.1614 33.1341 24.5302 33.3277 23.8835 33.3333Z" fill="#FFFFFE"/>
</g>
<defs>
<clipPath id="clip0_17_876">
<rect width="40" height="40" fill="white"/>
</clipPath>
</defs>
</svg>
