<svg width="40" height="40" viewBox="0 0 40 40" fill="none" xmlns="http://www.w3.org/2000/svg">
<g clip-path="url(#clip0_38_158)">
<path d="M23.883 33.3332H23.533C22.8276 33.2632 22.1629 32.9702 21.6354 32.4966C21.1079 32.0231 20.7451 31.3937 20.5997 30.6999L16.133 9.99989L11.533 20.6666C11.4029 20.9647 11.1884 21.2182 10.9159 21.3959C10.6435 21.5736 10.325 21.6677 9.99967 21.6666H4.99967C4.55765 21.6666 4.13372 21.491 3.82116 21.1784C3.5086 20.8658 3.33301 20.4419 3.33301 19.9999C3.33301 19.5579 3.5086 19.1339 3.82116 18.8214C4.13372 18.5088 4.55765 18.3332 4.99967 18.3332H8.89967L13.083 8.68322C13.3646 8.03566 13.8446 7.49425 14.4537 7.13707C15.0629 6.77989 15.7697 6.62538 16.4724 6.69583C17.175 6.76628 17.8371 7.05804 18.3632 7.52905C18.8893 8.00006 19.2522 8.62597 19.3997 9.31656L23.8663 29.9999L28.4663 19.3666C28.5914 19.0622 28.8037 18.8016 29.0766 18.6178C29.3494 18.4339 29.6706 18.3349 29.9997 18.3332H34.9997C35.4417 18.3332 35.8656 18.5088 36.1782 18.8214C36.4907 19.1339 36.6663 19.5579 36.6663 19.9999C36.6663 20.4419 36.4907 20.8658 36.1782 21.1784C35.8656 21.491 35.4417 21.6666 34.9997 21.6666H31.0997L26.9163 31.3166C26.6609 31.9107 26.2381 32.4178 25.6995 32.7759C25.1609 33.1339 24.5298 33.3276 23.883 33.3332Z" fill="#00473E"/>
</g>
<defs>
<clipPath id="clip0_38_158">
<rect width="40" height="40" fill="white"/>
</clipPath>
</defs>
</svg>
