<svg width="43" height="40" viewBox="0 0 43 40" fill="none" xmlns="http://www.w3.org/2000/svg">
<path d="M15.2443 34.2002C13.9569 34.1974 12.6993 33.8294 11.6298 33.1425C10.5603 32.4555 9.72696 31.4804 9.23471 30.3401C8.74246 29.1997 8.61338 27.9452 8.86374 26.7346C9.11411 25.5241 9.73271 24.4117 10.6416 23.5377L21.6985 12.9252C22.0623 12.5763 22.4943 12.2996 22.9697 12.1108C23.4451 11.9221 23.9546 11.8249 24.4692 11.8249C24.9838 11.8249 25.4933 11.9221 25.9687 12.1108C26.4441 12.2996 26.8761 12.5763 27.2399 12.9252C27.6038 13.274 27.8924 13.6881 28.0894 14.1439C28.2863 14.5996 28.3876 15.0881 28.3876 15.5814C28.3876 16.0747 28.2863 16.5632 28.0894 17.019C27.8924 17.4747 27.6038 17.8888 27.2399 18.2377L16.17 28.8377C16.0531 28.9685 15.9093 29.0748 15.7475 29.1498C15.5857 29.2248 15.4095 29.267 15.23 29.2737C15.0504 29.2803 14.8713 29.2513 14.704 29.1885C14.5367 29.1256 14.3847 29.0303 14.2577 28.9085C14.1306 28.7866 14.0312 28.641 13.9656 28.4806C13.9001 28.3202 13.8698 28.1485 13.8767 27.9763C13.8837 27.8042 13.9277 27.6353 14.0059 27.4802C14.0842 27.3251 14.195 27.1872 14.3315 27.0752L25.3884 16.4627C25.602 16.2235 25.7137 15.9159 25.701 15.6013C25.6883 15.2867 25.5523 14.9883 25.3201 14.7657C25.0878 14.5431 24.7766 14.4127 24.4484 14.4005C24.1203 14.3884 23.7994 14.4954 23.55 14.7002L12.48 25.3002C11.7452 26.0046 11.3323 26.9601 11.3323 27.9564C11.3323 28.9527 11.7452 29.9082 12.48 30.6127C13.2149 31.3171 14.2115 31.7129 15.2508 31.7129C16.29 31.7129 17.2867 31.3171 18.0215 30.6127L29.0784 20.0002C30.266 18.8214 30.9231 17.2426 30.9082 15.6039C30.8934 13.9652 30.2077 12.3976 28.999 11.2388C27.7902 10.08 26.1551 9.42268 24.4457 9.40844C22.7364 9.3942 21.0896 10.0242 19.86 11.1627L13.4058 17.4127C13.1615 17.6455 12.831 17.7761 12.4865 17.7761C12.1421 17.7761 11.8116 17.6455 11.5673 17.4127C11.4451 17.2965 11.3481 17.1582 11.2819 17.0059C11.2157 16.8536 11.1816 16.6902 11.1816 16.5252C11.1816 16.3601 11.2157 16.1968 11.2819 16.0444C11.3481 15.8921 11.4451 15.7539 11.5673 15.6377L18.0215 9.38765C19.7333 7.74663 22.0549 6.82471 24.4757 6.82471C26.8965 6.82471 29.2182 7.74663 30.9299 9.38765C32.6417 11.0287 33.6033 13.2544 33.6033 15.5752C33.6033 17.8959 32.6417 20.1216 30.9299 21.7627L19.86 32.3752C19.2534 32.9552 18.5336 33.4149 17.7416 33.7281C16.9496 34.0412 16.101 34.2016 15.2443 34.2002Z" fill="#475D5B"/>
</svg>
