<svg width="43" height="40" viewBox="0 0 43 40" fill="none" xmlns="http://www.w3.org/2000/svg">
<path d="M15.8653 34.1999C14.578 34.1972 13.3204 33.8292 12.2509 33.1422C11.1814 32.4553 10.3481 31.4802 9.8558 30.3398C9.36355 29.1995 9.23447 27.945 9.48484 26.7344C9.7352 25.5238 10.3538 24.4114 11.2627 23.5374L22.3195 12.9249C22.6834 12.5761 23.1154 12.2994 23.5908 12.1106C24.0662 11.9218 24.5757 11.8247 25.0903 11.8247C25.6049 11.8247 26.1144 11.9218 26.5898 12.1106C27.0652 12.2994 27.4972 12.5761 27.861 12.9249C28.2249 13.2737 28.5135 13.6878 28.7104 14.1436C28.9074 14.5994 29.0087 15.0878 29.0087 15.5812C29.0087 16.0745 28.9074 16.563 28.7104 17.0187C28.5135 17.4745 28.2249 17.8886 27.861 18.2374L16.7911 28.8374C16.6742 28.9683 16.5304 29.0745 16.3686 29.1496C16.2068 29.2246 16.0306 29.2668 15.8511 29.2734C15.6715 29.2801 15.4924 29.2511 15.3251 29.1882C15.1578 29.1254 15.0058 29.03 14.8788 28.9082C14.7517 28.7864 14.6523 28.6407 14.5867 28.4803C14.5212 28.3199 14.4909 28.1482 14.4978 27.9761C14.5048 27.8039 14.5488 27.635 14.627 27.4799C14.7053 27.3249 14.8161 27.187 14.9526 27.0749L26.0095 16.4624C26.2231 16.2233 26.3348 15.9157 26.3221 15.6011C26.3094 15.2865 26.1734 14.9881 25.9412 14.7655C25.7089 14.5428 25.3977 14.4124 25.0695 14.4003C24.7413 14.3881 24.4205 14.4951 24.1711 14.6999L13.1011 25.2999C12.3663 26.0044 11.9534 26.9599 11.9534 27.9562C11.9534 28.9524 12.3663 29.9079 13.1011 30.6124C13.836 31.3169 14.8326 31.7127 15.8719 31.7127C16.9111 31.7127 17.9078 31.3169 18.6426 30.6124L29.6995 19.9999C30.8871 18.8211 31.5442 17.2424 31.5293 15.6037C31.5145 13.9649 30.8288 12.3973 29.6201 11.2385C28.4113 10.0797 26.7762 9.42244 25.0668 9.4082C23.3575 9.39396 21.7107 10.0239 20.4811 11.1624L14.0269 17.4124C13.7826 17.6452 13.4521 17.7759 13.1076 17.7759C12.7632 17.7759 12.4327 17.6452 12.1884 17.4124C12.0662 17.2962 11.9692 17.158 11.903 17.0056C11.8368 16.8533 11.8027 16.6899 11.8027 16.5249C11.8027 16.3599 11.8368 16.1965 11.903 16.0442C11.9692 15.8919 12.0662 15.7536 12.1884 15.6374L18.6426 9.38741C20.3544 7.74638 22.676 6.82446 25.0968 6.82446C27.5176 6.82446 29.8393 7.74638 31.551 9.38741C33.2628 11.0284 34.2244 13.2541 34.2244 15.5749C34.2244 17.8957 33.2628 20.1214 31.551 21.7624L20.4811 32.3749C19.8745 32.9549 19.1547 33.4147 18.3627 33.7278C17.5707 34.041 16.7221 34.2014 15.8653 34.1999Z" fill="#475D5B"/>
</svg>
