<svg width="24" height="25" viewBox="0 0 24 25" fill="none" xmlns="http://www.w3.org/2000/svg">
<path d="M19.4401 13.7403C19.2201 13.7403 18.9901 13.6703 18.7701 13.6203C18.3246 13.5222 17.8868 13.3918 17.4601 13.2303C16.9962 13.0616 16.4862 13.0703 16.0284 13.255C15.5706 13.4396 15.1972 13.787 14.9801 14.2303L14.7601 14.6803C13.7861 14.1385 12.8911 13.4656 12.1001 12.6803C11.3149 11.8894 10.6419 10.9943 10.1001 10.0203L10.5201 9.74035C10.9635 9.52326 11.3109 9.14988 11.4955 8.69204C11.6801 8.2342 11.6889 7.72426 11.5201 7.26035C11.3613 6.83277 11.231 6.39514 11.1301 5.95035C11.0801 5.73035 11.0401 5.50035 11.0101 5.27035C10.8887 4.56597 10.5197 3.92809 9.96972 3.47159C9.41972 3.01508 8.7248 2.76996 8.0101 2.78035H5.0101C4.57913 2.7763 4.15235 2.86516 3.75881 3.04088C3.36527 3.21659 3.01421 3.47504 2.72953 3.79863C2.44485 4.12221 2.23324 4.50334 2.10909 4.91606C1.98494 5.32878 1.95118 5.76341 2.0101 6.19035C2.54284 10.3797 4.45613 14.2722 7.44775 17.253C10.4394 20.2337 14.3388 22.1329 18.5301 22.6503H18.9101C19.6475 22.6514 20.3595 22.3809 20.9101 21.8903C21.2265 21.6074 21.4792 21.2605 21.6516 20.8727C21.8239 20.4848 21.9121 20.0648 21.9101 19.6403V16.6403C21.8979 15.9457 21.6449 15.2769 21.1944 14.748C20.744 14.2191 20.1239 13.863 19.4401 13.7403ZM19.9401 19.7403C19.9399 19.8823 19.9095 20.0226 19.8509 20.152C19.7923 20.2813 19.7068 20.3966 19.6001 20.4903C19.4884 20.5868 19.3577 20.6589 19.2165 20.7019C19.0753 20.745 18.9267 20.7581 18.7801 20.7403C15.035 20.2602 11.5563 18.5468 8.89282 15.8706C6.2293 13.1944 4.53251 9.70768 4.0701 5.96035C4.05419 5.81386 4.06813 5.66568 4.1111 5.52474C4.15407 5.3838 4.22517 5.25303 4.3201 5.14035C4.41381 5.03368 4.52916 4.94819 4.65848 4.88956C4.7878 4.83094 4.92812 4.80053 5.0701 4.80035H8.0701C8.30265 4.79517 8.52972 4.87123 8.71224 5.01542C8.89476 5.15961 9.02131 5.36292 9.0701 5.59035C9.1101 5.86368 9.1601 6.13368 9.2201 6.40035C9.33562 6.92749 9.48936 7.44553 9.6801 7.95035L8.2801 8.60035C8.1604 8.65527 8.05272 8.73329 7.96326 8.82994C7.87379 8.92659 7.8043 9.03996 7.75877 9.16354C7.71324 9.28712 7.69257 9.41848 7.69795 9.55007C7.70332 9.68166 7.73464 9.81089 7.7901 9.93035C9.2293 13.0131 11.7073 15.4911 14.7901 16.9303C15.0336 17.0304 15.3066 17.0304 15.5501 16.9303C15.6748 16.8857 15.7894 16.8168 15.8873 16.7275C15.9851 16.6383 16.0643 16.5305 16.1201 16.4103L16.7401 15.0103C17.2571 15.1952 17.7847 15.3488 18.3201 15.4703C18.5868 15.5303 18.8568 15.5803 19.1301 15.6203C19.3575 15.6691 19.5608 15.7957 19.705 15.9782C19.8492 16.1607 19.9253 16.3878 19.9201 16.6203L19.9401 19.7403Z" fill="#F2F7F5"/>
</svg>
