<svg width="930" height="244" viewBox="0 0 930 244" fill="none" xmlns="http://www.w3.org/2000/svg">
<path d="M3 226.391C60.2126 226.391 106.112 22.164 170 22.164C233.888 22.164 269.335 240.664 341 240.664C412.665 240.664 443.903 107.164 504 107.164C564.097 107.164 605.695 166.164 669.5 166.164C733.305 166.164 778.627 45.164 839.5 45.164C900.373 45.164 866.5 87.6807 927 87.6807" stroke="#FCC43E" stroke-width="6" stroke-linecap="round"/>
<path d="M2 226.391C59.2126 226.391 105.112 22.164 169 22.164C232.888 22.164 268.335 240.664 340 240.664C411.665 240.664 442.903 107.164 503 107.164C563.097 107.164 604.695 166.164 668.5 166.164C732.305 166.164 777.627 45.164 838.5 45.164C899.373 45.164 865.5 87.6807 926 87.6807V240.664H340H2V226.391Z" fill="url(#paint0_linear_2_344)"/>
<path d="M3.00003 183.332C60.2598 183.332 101.676 106 170.818 106C232.567 106 276.747 215.81 340.088 215.81C412 215.81 444 80.9556 504 80.9556C564 80.9556 609.729 215.81 671 215.81C748.784 215.81 773.977 3.83596 840 3.83594C899.761 3.83592 869.5 128.5 926.5 128.5" stroke="#FB7D5B" stroke-width="6" stroke-linecap="round"/>
<path d="M169.818 106C100.676 106 59.2598 183.332 2.00003 183.332V243H925.5V128.5C868.5 128.5 898.761 3.83592 839 3.83594C772.977 3.83596 747.784 215.81 670 215.81C608.729 215.81 563 80.9556 503 80.9556C443 80.9556 411 215.81 339.088 215.81C275.747 215.81 231.567 106 169.818 106Z" fill="url(#paint1_linear_2_344)"/>
<path d="M503.913 88C508.901 88 512.825 83.9038 512.825 79C512.825 74.0962 508.901 70 503.913 70C498.924 70 495 74.0962 495 79C495 83.9038 498.924 88 503.913 88Z" fill="#F2F7F5" stroke="#FB7D5B" stroke-width="8"/>
<defs>
<linearGradient id="paint0_linear_2_344" x1="464" y1="-506.5" x2="464" y2="240.664" gradientUnits="userSpaceOnUse">
<stop stop-color="#FCC43E"/>
<stop offset="1" stop-color="#FCC43E" stop-opacity="0"/>
</linearGradient>
<linearGradient id="paint1_linear_2_344" x1="463.75" y1="-577" x2="463.75" y2="243" gradientUnits="userSpaceOnUse">
<stop stop-color="#FB7D5B"/>
<stop offset="1" stop-color="#FB7D5B" stop-opacity="0"/>
</linearGradient>
</defs>
</svg>
