<svg width="1272" height="244" viewBox="0 0 1272 244" fill="none" xmlns="http://www.w3.org/2000/svg">
<path d="M3.57812 226.391C81.931 226.391 144.79 22.164 232.285 22.164C319.78 22.164 368.325 240.664 466.471 240.664C564.616 240.664 607.397 107.164 689.7 107.164C772.003 107.164 828.971 166.164 916.353 166.164C1003.73 166.164 1065.8 45.164 1149.17 45.164C1232.53 45.164 1186.15 87.6807 1269 87.6807" stroke="#FCC43E" stroke-width="6" stroke-linecap="round"/>
<path d="M2.20801 226.391C80.5609 226.391 143.42 22.164 230.915 22.164C318.41 22.164 366.955 240.664 465.1 240.664C563.246 240.664 606.027 107.164 688.33 107.164C770.633 107.164 827.601 166.164 914.983 166.164C1002.36 166.164 1064.43 45.164 1147.8 45.164C1231.16 45.164 1184.78 87.6807 1267.63 87.6807V240.664H465.1H2.20801V226.391Z" fill="url(#paint0_linear_18_447)"/>
<path d="M3.57812 183.332C81.9761 183.332 138.682 106 233.348 106C317.892 106 378.382 215.81 465.106 215.81C563.566 215.81 607.379 80.9556 689.529 80.9556C771.679 80.9556 834.289 215.81 918.179 215.81C1024.68 215.81 1059.17 3.83596 1149.57 3.83594C1231.39 3.83592 1189.96 128.5 1268 128.5" stroke="#FB7D5B" stroke-width="6" stroke-linecap="round"/>
<path d="M231.978 106C137.312 106 80.606 183.332 2.20801 183.332V243H1266.63V128.5C1188.59 128.5 1230.02 3.83592 1148.2 3.83594C1057.8 3.83596 1023.31 215.81 916.809 215.81C832.919 215.81 770.308 80.9556 688.159 80.9556C606.009 80.9556 562.196 215.81 463.736 215.81C377.012 215.81 316.522 106 231.978 106Z" fill="url(#paint1_linear_18_447)"/>
<path d="M693.727 88C698.695 88 702.74 83.98 702.74 79C702.74 74.02 698.695 70 693.727 70C688.759 70 684.715 74.02 684.715 79C684.715 83.98 688.759 88 693.727 88Z" fill="#F2F7F5" stroke="#FB7D5B" stroke-width="8"/>
<defs>
<linearGradient id="paint0_linear_18_447" x1="634.919" y1="-506.5" x2="634.919" y2="240.664" gradientUnits="userSpaceOnUse">
<stop stop-color="#FCC43E"/>
<stop offset="1" stop-color="#FCC43E" stop-opacity="0"/>
</linearGradient>
<linearGradient id="paint1_linear_18_447" x1="634.419" y1="-577" x2="634.419" y2="243" gradientUnits="userSpaceOnUse">
<stop stop-color="#FB7D5B"/>
<stop offset="1" stop-color="#FB7D5B" stop-opacity="0"/>
</linearGradient>
</defs>
</svg>
