<svg width="40" height="40" viewBox="0 0 40 40" fill="none" xmlns="http://www.w3.org/2000/svg">
<path d="M33.3332 3.33334H16.6665C15.3404 3.33334 14.0687 3.86013 13.131 4.79781C12.1933 5.73549 11.6665 7.00726 11.6665 8.33334V11.6667H6.6665C5.34042 11.6667 4.06865 12.1935 3.13097 13.1311C2.19329 14.0688 1.6665 15.3406 1.6665 16.6667V26.6667C1.66596 27.7011 1.98626 28.7102 2.58326 29.555C3.18027 30.3997 4.02458 31.0385 4.99984 31.3833V35C5.00035 35.2953 5.07932 35.5852 5.22867 35.84C5.37802 36.0948 5.59239 36.3053 5.84984 36.45C6.09893 36.5912 6.38019 36.6658 6.6665 36.6667C6.96564 36.6666 7.25924 36.586 7.5165 36.4333L15.4665 31.6667H23.3332C24.6593 31.6667 25.931 31.1399 26.8687 30.2022C27.8064 29.2645 28.3332 27.9928 28.3332 26.6667V25.6167L32.4832 28.1C32.7404 28.2527 33.034 28.3333 33.3332 28.3333C33.6195 28.3325 33.9007 28.2579 34.1498 28.1167C34.4073 27.972 34.6216 27.7614 34.771 27.5067C34.9204 27.2519 34.9993 26.962 34.9998 26.6667V23.05C35.9751 22.7052 36.8194 22.0664 37.4164 21.2216C38.0134 20.3769 38.3337 19.3678 38.3332 18.3333V8.33334C38.3332 7.00726 37.8064 5.73549 36.8687 4.79781C35.931 3.86013 34.6592 3.33334 33.3332 3.33334ZM24.9998 26.6667C24.9998 27.1087 24.8242 27.5326 24.5117 27.8452C24.1991 28.1578 23.7752 28.3333 23.3332 28.3333H14.9998C14.7007 28.3334 14.4071 28.414 14.1498 28.5667L8.33317 32.05V30C8.33317 29.558 8.15758 29.1341 7.84502 28.8215C7.53245 28.5089 7.10853 28.3333 6.6665 28.3333C6.22448 28.3333 5.80055 28.1578 5.48799 27.8452C5.17543 27.5326 4.99984 27.1087 4.99984 26.6667V16.6667C4.99984 16.2247 5.17543 15.8007 5.48799 15.4882C5.80055 15.1756 6.22448 15 6.6665 15H11.6665V18.3333C11.6665 19.6594 12.1933 20.9312 13.131 21.8689C14.0687 22.8066 15.3404 23.3333 16.6665 23.3333H24.5332L24.9998 23.6167V26.6667ZM34.9998 18.3333C34.9998 18.7754 34.8242 19.1993 34.5117 19.5119C34.1991 19.8244 33.7752 20 33.3332 20C32.8911 20 32.4672 20.1756 32.1547 20.4882C31.8421 20.8007 31.6665 21.2246 31.6665 21.6667V23.7167L25.8498 20.2333C25.5926 20.0807 25.299 20.0001 24.9998 20H16.6665C16.2245 20 15.8006 19.8244 15.488 19.5119C15.1754 19.1993 14.9998 18.7754 14.9998 18.3333V8.33334C14.9998 7.89132 15.1754 7.46739 15.488 7.15483C15.8006 6.84227 16.2245 6.66668 16.6665 6.66668H33.3332C33.7752 6.66668 34.1991 6.84227 34.5117 7.15483C34.8242 7.46739 34.9998 7.89132 34.9998 8.33334V18.3333Z" fill="#FFFFFE"/>
</svg>
