<svg width="40" height="40" viewBox="0 0 40 40" fill="none" xmlns="http://www.w3.org/2000/svg">
<path d="M33.3337 3.33325H16.667C15.3409 3.33325 14.0691 3.86004 13.1315 4.79772C12.1938 5.7354 11.667 7.00717 11.667 8.33325V11.6666H6.66699C5.34091 11.6666 4.06914 12.1934 3.13146 13.1311C2.19378 14.0687 1.66699 15.3405 1.66699 16.6666V26.6666C1.66645 27.701 1.98675 28.7101 2.58375 29.5549C3.18075 30.3996 4.02507 31.0384 5.00033 31.3833V34.9999C5.00083 35.2952 5.07981 35.5851 5.22916 35.8399C5.37851 36.0947 5.59288 36.3052 5.85033 36.4499C6.09942 36.5911 6.38068 36.6657 6.66699 36.6666C6.96613 36.6665 7.25973 36.5859 7.51699 36.4333L15.467 31.6666H23.3337C24.6597 31.6666 25.9315 31.1398 26.8692 30.2021C27.8069 29.2644 28.3337 27.9927 28.3337 26.6666V25.6166L32.4837 28.0999C32.7409 28.2526 33.0345 28.3332 33.3337 28.3333C33.62 28.3324 33.9012 28.2578 34.1503 28.1166C34.4078 27.9719 34.6221 27.7614 34.7715 27.5066C34.9208 27.2518 34.9998 26.9619 35.0003 26.6666V23.0499C35.9756 22.7051 36.8199 22.0663 37.4169 21.2216C38.0139 20.3768 38.3342 19.3677 38.3337 18.3333V8.33325C38.3337 7.00717 37.8069 5.7354 36.8692 4.79772C35.9315 3.86004 34.6597 3.33325 33.3337 3.33325ZM25.0003 26.6666C25.0003 27.1086 24.8247 27.5325 24.5122 27.8451C24.1996 28.1577 23.7757 28.3333 23.3337 28.3333H15.0003C14.7012 28.3333 14.4076 28.4139 14.1503 28.5666L8.33366 32.0499V29.9999C8.33366 29.5579 8.15806 29.134 7.8455 28.8214C7.53294 28.5088 7.10902 28.3333 6.66699 28.3333C6.22497 28.3333 5.80104 28.1577 5.48848 27.8451C5.17592 27.5325 5.00033 27.1086 5.00033 26.6666V16.6666C5.00033 16.2246 5.17592 15.8006 5.48848 15.4881C5.80104 15.1755 6.22497 14.9999 6.66699 14.9999H11.667V18.3333C11.667 19.6593 12.1938 20.9311 13.1315 21.8688C14.0691 22.8065 15.3409 23.3333 16.667 23.3333H24.5337L25.0003 23.6166V26.6666ZM35.0003 18.3333C35.0003 18.7753 34.8247 19.1992 34.5122 19.5118C34.1996 19.8243 33.7757 19.9999 33.3337 19.9999C32.8916 19.9999 32.4677 20.1755 32.1551 20.4881C31.8426 20.8006 31.667 21.2246 31.667 21.6666V23.7166L25.8503 20.2333C25.5931 20.0806 25.2995 20 25.0003 19.9999H16.667C16.225 19.9999 15.801 19.8243 15.4885 19.5118C15.1759 19.1992 15.0003 18.7753 15.0003 18.3333V8.33325C15.0003 7.89122 15.1759 7.4673 15.4885 7.15474C15.801 6.84218 16.225 6.66659 16.667 6.66659H33.3337C33.7757 6.66659 34.1996 6.84218 34.5122 7.15474C34.8247 7.4673 35.0003 7.89122 35.0003 8.33325V18.3333Z" fill="#FFFFFE"/>
</svg>
