<svg width="40" height="40" viewBox="0 0 40 40" fill="none" xmlns="http://www.w3.org/2000/svg">
<path d="M33.3333 3.33334H16.6666C15.3405 3.33334 14.0688 3.86013 13.1311 4.79781C12.1934 5.73549 11.6666 7.00726 11.6666 8.33334V11.6667H6.66663C5.34054 11.6667 4.06877 12.1935 3.13109 13.1311C2.19341 14.0688 1.66663 15.3406 1.66663 16.6667V26.6667C1.66608 27.7011 1.98639 28.7102 2.58339 29.555C3.18039 30.3997 4.0247 31.0385 4.99996 31.3833V35C5.00047 35.2953 5.07944 35.5852 5.22879 35.84C5.37815 36.0948 5.59252 36.3053 5.84996 36.45C6.09905 36.5912 6.38031 36.6658 6.66663 36.6667C6.96576 36.6666 7.25937 36.586 7.51663 36.4333L15.4666 31.6667H23.3333C24.6594 31.6667 25.9311 31.1399 26.8688 30.2022C27.8065 29.2645 28.3333 27.9928 28.3333 26.6667V25.6167L32.4833 28.1C32.7405 28.2527 33.0342 28.3333 33.3333 28.3333C33.6196 28.3325 33.9009 28.2579 34.15 28.1167C34.4074 27.972 34.6218 27.7614 34.7711 27.5067C34.9205 27.2519 34.9994 26.962 35 26.6667V23.05C35.9752 22.7052 36.8195 22.0664 37.4165 21.2216C38.0135 20.3769 38.3338 19.3678 38.3333 18.3333V8.33334C38.3333 7.00726 37.8065 5.73549 36.8688 4.79781C35.9311 3.86013 34.6594 3.33334 33.3333 3.33334ZM25 26.6667C25 27.1087 24.8244 27.5326 24.5118 27.8452C24.1992 28.1578 23.7753 28.3333 23.3333 28.3333H15C14.7008 28.3334 14.4072 28.414 14.15 28.5667L8.33329 32.05V30C8.33329 29.558 8.1577 29.1341 7.84514 28.8215C7.53258 28.5089 7.10865 28.3333 6.66663 28.3333C6.2246 28.3333 5.80068 28.1578 5.48812 27.8452C5.17555 27.5326 4.99996 27.1087 4.99996 26.6667V16.6667C4.99996 16.2247 5.17555 15.8007 5.48812 15.4882C5.80068 15.1756 6.2246 15 6.66663 15H11.6666V18.3333C11.6666 19.6594 12.1934 20.9312 13.1311 21.8689C14.0688 22.8066 15.3405 23.3333 16.6666 23.3333H24.5333L25 23.6167V26.6667ZM35 18.3333C35 18.7754 34.8244 19.1993 34.5118 19.5119C34.1992 19.8244 33.7753 20 33.3333 20C32.8913 20 32.4673 20.1756 32.1548 20.4882C31.8422 20.8007 31.6666 21.2246 31.6666 21.6667V23.7167L25.85 20.2333C25.5927 20.0807 25.2991 20.0001 25 20H16.6666C16.2246 20 15.8007 19.8244 15.4881 19.5119C15.1756 19.1993 15 18.7754 15 18.3333V8.33334C15 7.89132 15.1756 7.46739 15.4881 7.15483C15.8007 6.84227 16.2246 6.66668 16.6666 6.66668H33.3333C33.7753 6.66668 34.1992 6.84227 34.5118 7.15483C34.8244 7.46739 35 7.89132 35 8.33334V18.3333Z" fill="#FFFFFE"/>
</svg>
