<svg width="40" height="40" viewBox="0 0 40 40" fill="none" xmlns="http://www.w3.org/2000/svg">
<path d="M33.3332 3.33325H16.6665C15.3404 3.33325 14.0687 3.86004 13.131 4.79772C12.1933 5.7354 11.6665 7.00717 11.6665 8.33325V11.6666H6.6665C5.34042 11.6666 4.06865 12.1934 3.13097 13.1311C2.19329 14.0687 1.6665 15.3405 1.6665 16.6666V26.6666C1.66596 27.701 1.98626 28.7101 2.58326 29.5549C3.18027 30.3996 4.02458 31.0384 4.99984 31.3833V34.9999C5.00035 35.2952 5.07932 35.5851 5.22867 35.8399C5.37802 36.0947 5.59239 36.3052 5.84984 36.4499C6.09893 36.5911 6.38019 36.6657 6.6665 36.6666C6.96564 36.6665 7.25924 36.5859 7.5165 36.4333L15.4665 31.6666H23.3332C24.6593 31.6666 25.931 31.1398 26.8687 30.2021C27.8064 29.2644 28.3332 27.9927 28.3332 26.6666V25.6166L32.4832 28.0999C32.7404 28.2526 33.034 28.3332 33.3332 28.3333C33.6195 28.3324 33.9007 28.2578 34.1498 28.1166C34.4073 27.9719 34.6216 27.7614 34.771 27.5066C34.9204 27.2518 34.9993 26.9619 34.9998 26.6666V23.0499C35.9751 22.7051 36.8194 22.0663 37.4164 21.2216C38.0134 20.3768 38.3337 19.3677 38.3332 18.3333V8.33325C38.3332 7.00717 37.8064 5.7354 36.8687 4.79772C35.931 3.86004 34.6592 3.33325 33.3332 3.33325ZM24.9998 26.6666C24.9998 27.1086 24.8242 27.5325 24.5117 27.8451C24.1991 28.1577 23.7752 28.3333 23.3332 28.3333H14.9998C14.7007 28.3333 14.4071 28.4139 14.1498 28.5666L8.33317 32.0499V29.9999C8.33317 29.5579 8.15758 29.134 7.84502 28.8214C7.53245 28.5088 7.10853 28.3333 6.6665 28.3333C6.22448 28.3333 5.80055 28.1577 5.48799 27.8451C5.17543 27.5325 4.99984 27.1086 4.99984 26.6666V16.6666C4.99984 16.2246 5.17543 15.8006 5.48799 15.4881C5.80055 15.1755 6.22448 14.9999 6.6665 14.9999H11.6665V18.3333C11.6665 19.6593 12.1933 20.9311 13.131 21.8688C14.0687 22.8065 15.3404 23.3333 16.6665 23.3333H24.5332L24.9998 23.6166V26.6666ZM34.9998 18.3333C34.9998 18.7753 34.8242 19.1992 34.5117 19.5118C34.1991 19.8243 33.7752 19.9999 33.3332 19.9999C32.8911 19.9999 32.4672 20.1755 32.1547 20.4881C31.8421 20.8006 31.6665 21.2246 31.6665 21.6666V23.7166L25.8498 20.2333C25.5926 20.0806 25.299 20 24.9998 19.9999H16.6665C16.2245 19.9999 15.8006 19.8243 15.488 19.5118C15.1754 19.1992 14.9998 18.7753 14.9998 18.3333V8.33325C14.9998 7.89122 15.1754 7.4673 15.488 7.15474C15.8006 6.84218 16.2245 6.66659 16.6665 6.66659H33.3332C33.7752 6.66659 34.1991 6.84218 34.5117 7.15474C34.8242 7.4673 34.9998 7.89122 34.9998 8.33325V18.3333Z" fill="#FFFFFE"/>
</svg>
