<svg width="40" height="40" viewBox="0 0 40 40" fill="none" xmlns="http://www.w3.org/2000/svg">
<path d="M33.3333 3.33334H16.6667C15.3406 3.33334 14.0688 3.86013 13.1311 4.79781C12.1935 5.73549 11.6667 7.00726 11.6667 8.33334V11.6667H6.66667C5.34059 11.6667 4.06882 12.1935 3.13114 13.1311C2.19346 14.0688 1.66667 15.3406 1.66667 16.6667V26.6667C1.66613 27.7011 1.98643 28.7102 2.58343 29.555C3.18043 30.3997 4.02474 31.0385 5.00001 31.3833V35C5.00051 35.2953 5.07949 35.5852 5.22884 35.84C5.37819 36.0948 5.59256 36.3053 5.85001 36.45C6.0991 36.5912 6.38036 36.6658 6.66667 36.6667C6.96581 36.6666 7.25941 36.586 7.51667 36.4333L15.4667 31.6667H23.3333C24.6594 31.6667 25.9312 31.1399 26.8689 30.2022C27.8066 29.2645 28.3333 27.9928 28.3333 26.6667V25.6167L32.4833 28.1C32.7406 28.2527 33.0342 28.3333 33.3333 28.3333C33.6196 28.3325 33.9009 28.2579 34.15 28.1167C34.4074 27.972 34.6218 27.7614 34.7712 27.5067C34.9205 27.2519 34.9995 26.962 35 26.6667V23.05C35.9753 22.7052 36.8196 22.0664 37.4166 21.2216C38.0136 20.3769 38.3339 19.3678 38.3333 18.3333V8.33334C38.3333 7.00726 37.8066 5.73549 36.8689 4.79781C35.9312 3.86013 34.6594 3.33334 33.3333 3.33334ZM25 26.6667C25 27.1087 24.8244 27.5326 24.5118 27.8452C24.1993 28.1578 23.7754 28.3333 23.3333 28.3333H15C14.7009 28.3334 14.4073 28.414 14.15 28.5667L8.33334 32.05V30C8.33334 29.558 8.15774 29.1341 7.84518 28.8215C7.53262 28.5089 7.1087 28.3333 6.66667 28.3333C6.22464 28.3333 5.80072 28.1578 5.48816 27.8452C5.1756 27.5326 5.00001 27.1087 5.00001 26.6667V16.6667C5.00001 16.2247 5.1756 15.8007 5.48816 15.4882C5.80072 15.1756 6.22464 15 6.66667 15H11.6667V18.3333C11.6667 19.6594 12.1935 20.9312 13.1311 21.8689C14.0688 22.8066 15.3406 23.3333 16.6667 23.3333H24.5333L25 23.6167V26.6667ZM35 18.3333C35 18.7754 34.8244 19.1993 34.5118 19.5119C34.1993 19.8244 33.7754 20 33.3333 20C32.8913 20 32.4674 20.1756 32.1548 20.4882C31.8423 20.8007 31.6667 21.2246 31.6667 21.6667V23.7167L25.85 20.2333C25.5927 20.0807 25.2991 20.0001 25 20H16.6667C16.2246 20 15.8007 19.8244 15.4882 19.5119C15.1756 19.1993 15 18.7754 15 18.3333V8.33334C15 7.89132 15.1756 7.46739 15.4882 7.15483C15.8007 6.84227 16.2246 6.66668 16.6667 6.66668H33.3333C33.7754 6.66668 34.1993 6.84227 34.5118 7.15483C34.8244 7.46739 35 7.89132 35 8.33334V18.3333Z" fill="#FFFFFE"/>
</svg>
