<svg width="40" height="40" viewBox="0 0 40 40" fill="none" xmlns="http://www.w3.org/2000/svg">
<path d="M33.3337 3.33334H16.667C15.3409 3.33334 14.0691 3.86013 13.1315 4.79781C12.1938 5.73549 11.667 7.00726 11.667 8.33334V11.6667H6.66699C5.34091 11.6667 4.06914 12.1935 3.13146 13.1311C2.19378 14.0688 1.66699 15.3406 1.66699 16.6667V26.6667C1.66645 27.7011 1.98675 28.7102 2.58375 29.555C3.18075 30.3997 4.02507 31.0385 5.00033 31.3833V35C5.00083 35.2953 5.07981 35.5852 5.22916 35.84C5.37851 36.0948 5.59288 36.3053 5.85033 36.45C6.09942 36.5912 6.38068 36.6658 6.66699 36.6667C6.96613 36.6666 7.25973 36.586 7.51699 36.4333L15.467 31.6667H23.3337C24.6597 31.6667 25.9315 31.1399 26.8692 30.2022C27.8069 29.2645 28.3337 27.9928 28.3337 26.6667V25.6167L32.4837 28.1C32.7409 28.2527 33.0345 28.3333 33.3337 28.3333C33.62 28.3325 33.9012 28.2579 34.1503 28.1167C34.4078 27.972 34.6221 27.7614 34.7715 27.5067C34.9208 27.2519 34.9998 26.962 35.0003 26.6667V23.05C35.9756 22.7052 36.8199 22.0664 37.4169 21.2216C38.0139 20.3769 38.3342 19.3678 38.3337 18.3333V8.33334C38.3337 7.00726 37.8069 5.73549 36.8692 4.79781C35.9315 3.86013 34.6597 3.33334 33.3337 3.33334ZM25.0003 26.6667C25.0003 27.1087 24.8247 27.5326 24.5122 27.8452C24.1996 28.1578 23.7757 28.3333 23.3337 28.3333H15.0003C14.7012 28.3334 14.4076 28.414 14.1503 28.5667L8.33366 32.05V30C8.33366 29.558 8.15806 29.1341 7.8455 28.8215C7.53294 28.5089 7.10902 28.3333 6.66699 28.3333C6.22497 28.3333 5.80104 28.1578 5.48848 27.8452C5.17592 27.5326 5.00033 27.1087 5.00033 26.6667V16.6667C5.00033 16.2247 5.17592 15.8007 5.48848 15.4882C5.80104 15.1756 6.22497 15 6.66699 15H11.667V18.3333C11.667 19.6594 12.1938 20.9312 13.1315 21.8689C14.0691 22.8066 15.3409 23.3333 16.667 23.3333H24.5337L25.0003 23.6167V26.6667ZM35.0003 18.3333C35.0003 18.7754 34.8247 19.1993 34.5122 19.5119C34.1996 19.8244 33.7757 20 33.3337 20C32.8916 20 32.4677 20.1756 32.1551 20.4882C31.8426 20.8007 31.667 21.2246 31.667 21.6667V23.7167L25.8503 20.2333C25.5931 20.0807 25.2995 20.0001 25.0003 20H16.667C16.225 20 15.801 19.8244 15.4885 19.5119C15.1759 19.1993 15.0003 18.7754 15.0003 18.3333V8.33334C15.0003 7.89132 15.1759 7.46739 15.4885 7.15483C15.801 6.84227 16.225 6.66668 16.667 6.66668H33.3337C33.7757 6.66668 34.1996 6.84227 34.5122 7.15483C34.8247 7.46739 35.0003 7.89132 35.0003 8.33334V18.3333Z" fill="#FFFFFE"/>
</svg>
