<svg width="24" height="25" viewBox="0 0 24 25" fill="none" xmlns="http://www.w3.org/2000/svg">
<path d="M19 4.74023H5C4.20435 4.74023 3.44129 5.0563 2.87868 5.61891C2.31607 6.18152 2 6.94458 2 7.74023V17.7402C2 18.5359 2.31607 19.2989 2.87868 19.8616C3.44129 20.4242 4.20435 20.7402 5 20.7402H19C19.7956 20.7402 20.5587 20.4242 21.1213 19.8616C21.6839 19.2989 22 18.5359 22 17.7402V7.74023C22 6.94458 21.6839 6.18152 21.1213 5.61891C20.5587 5.0563 19.7956 4.74023 19 4.74023ZM18.427 6.74023L12.6 11.5402C12.4335 11.6669 12.2312 11.7378 12.022 11.7429C11.8129 11.7479 11.6074 11.6868 11.435 11.5682L5.573 6.74023H18.427ZM19 18.7402H5C4.73478 18.7402 4.48043 18.6349 4.29289 18.4473C4.10536 18.2598 4 18.0055 4 17.7402V8.04023L10.2 13.1402C10.7159 13.5266 11.3435 13.7347 11.988 13.7332C12.6551 13.7322 13.3037 13.5143 13.836 13.1122L20 8.04023V17.7402C20 18.0055 19.8946 18.2598 19.7071 18.4473C19.5196 18.6349 19.2652 18.7402 19 18.7402Z" fill="#F2F7F5"/>
</svg>
