<svg width="32" height="32" viewBox="0 0 32 32" fill="none" xmlns="http://www.w3.org/2000/svg">
<path d="M26.6666 5.3335H5.33325C4.27239 5.3335 3.25497 5.75492 2.50482 6.50507C1.75468 7.25521 1.33325 8.27263 1.33325 9.3335V22.6668C1.33325 23.7277 1.75468 24.7451 2.50482 25.4953C3.25497 26.2454 4.27239 26.6668 5.33325 26.6668H26.6666C27.7274 26.6668 28.7449 26.2454 29.495 25.4953C30.2452 24.7451 30.6666 23.7277 30.6666 22.6668V9.3335C30.6666 8.27263 30.2452 7.25521 29.495 6.50507C28.7449 5.75492 27.7274 5.3335 26.6666 5.3335ZM27.9999 22.3335L21.4666 16.4668L27.9999 11.8935V22.3335ZM3.99992 11.8935L10.5333 16.4668L3.99992 22.3335V11.8935ZM12.7733 18.0402L15.2399 19.7602C15.4631 19.915 15.7283 19.998 15.9999 19.998C16.2716 19.998 16.5367 19.915 16.7599 19.7602L19.2266 18.0402L25.8932 24.0002H6.13325L12.7733 18.0402ZM5.33325 8.00016H26.6666C26.9142 8.00215 27.1564 8.07305 27.366 8.20493C27.5756 8.33681 27.7443 8.52445 27.8532 8.74683L15.9999 17.0402L4.14658 8.74683C4.25553 8.52445 4.42426 8.33681 4.63385 8.20493C4.84345 8.07305 5.08563 8.00215 5.33325 8.00016Z" fill="#475D5B"/>
</svg>
