<svg width="40" height="40" viewBox="0 0 40 40" fill="none" xmlns="http://www.w3.org/2000/svg">
<path d="M36.2365 21.8435C33.9956 21.0315 31.5096 21.212 29.4077 22.3374L25.9812 23.8788C25.7043 22.3007 24.4923 21.1148 22.9963 21.0692C22.9875 21.069 17.8587 21.0111 17.8587 21.0111C13.7535 19.885 11.0862 21.332 9.56458 22.7579C9.25338 23.0496 8.9797 23.3498 8.73885 23.646C8.32825 23.2038 7.60347 23.0856 7.07492 23.3762L2.41928 25.9354C1.81543 26.2674 1.5527 26.9956 1.80594 27.6358L6.35586 39.1377C6.65483 39.8934 7.57364 40.2274 8.29056 39.8333L12.9462 37.2742C13.3826 37.0343 13.6395 36.5873 13.6536 36.1162H20.6022C21.7356 36.1162 22.8546 35.8185 23.8382 35.2553C23.8382 35.2553 36.9065 27.7589 36.9803 27.6919C38.8104 26.027 38.8668 22.7966 36.2365 21.8435C37.2858 22.2237 33.9956 21.0315 36.2365 21.8435ZM8.33218 36.688L4.7968 27.7508L7.03304 26.5216L10.5684 35.4588L8.33218 36.688ZM35.2316 25.5773L22.4747 32.8826C21.9054 33.2087 21.2578 33.381 20.6019 33.381H12.6919L10.036 26.667C10.2636 26.2034 10.7117 25.4342 11.4394 24.7522C12.93 23.3555 14.8946 22.998 17.2791 23.6898C17.3983 23.7244 17.5218 23.7427 17.6459 23.7441L22.918 23.8034C23.0526 23.815 23.3011 24.1143 23.3011 24.5679C23.3011 25.035 23.0445 25.3327 22.9103 25.3327H17.7302V28.0679H22.9103C23.552 28.0679 24.1492 27.8509 24.6463 27.4791L30.5779 24.8109C30.6094 24.7968 30.6401 24.7815 30.6704 24.765C32.0933 23.9914 33.7815 23.8636 35.3018 24.4145C35.9035 24.6327 35.4688 25.3364 35.2316 25.5773ZM27 19.7079C21.5669 19.7079 17.1467 15.2874 17.1467 9.85393C17.1467 4.42051 21.5668 0 27 0C32.4331 0 36.8532 4.42051 36.8532 9.85393C36.8532 15.2874 32.433 19.7079 27 19.7079ZM27 2.73521C23.0775 2.73521 19.8864 5.92863 19.8864 9.85393C19.8864 13.7792 23.0776 16.9727 27 16.9727C30.9225 16.9727 34.1136 13.7791 34.1136 9.85393C34.1136 5.92872 30.9224 2.73521 27 2.73521Z" fill="#FFFFFE"/>
<path d="M27.6362 8.73914C26.5469 8.29179 26.4627 8.09957 26.4627 7.87675C26.4627 7.73444 26.5333 7.40359 27.1876 7.40359C27.7862 7.40359 28.532 7.73957 29.058 8.08581L29.7897 6.16786C29.2673 5.8353 28.6324 5.54957 28.0388 5.4582V4.21094H26.0879V5.57957C24.9289 5.94487 24.2147 6.87136 24.2147 8.0247C24.2147 9.55222 25.4368 10.2342 26.6304 10.6991C27.5841 11.0827 27.664 11.3764 27.664 11.6216C27.664 11.9988 27.3164 12.2425 26.7785 12.2425C26.077 12.2425 25.2614 11.8379 24.6903 11.3951L23.9863 13.3438C24.5686 13.7953 25.2426 14.0932 26.0009 14.2044V15.4968H27.964V14.09C29.1592 13.7094 29.9242 12.7192 29.9242 11.5353C29.9242 9.87803 28.7015 9.17051 27.6362 8.73914Z" fill="#FFFFFE"/>
</svg>
