<svg width="32" height="32" viewBox="0 0 32 32" fill="none" xmlns="http://www.w3.org/2000/svg">
<path d="M12.2627 2.6665L11.4163 6.46598C10.935 6.69762 10.4748 6.96442 10.0335 7.26546L6.31999 6.09619L2.58301 12.5702L5.39811 15.1483C5.28813 15.9646 5.33794 16.3671 5.39811 16.8514L2.58301 19.4295L6.31999 25.9035L10.0335 24.7342C10.4748 25.0353 10.935 25.3021 11.4163 25.5337L12.2627 29.3332H19.7367L20.583 25.5337C21.0644 25.3021 21.5245 25.0353 21.9658 24.7342L25.6794 25.9035L29.4163 19.4295L26.6012 16.8514C26.6242 16.568 26.6661 16.2844 26.6663 15.9998C26.6674 15.7067 26.6212 15.4106 26.6012 15.1483L29.4163 12.5702L25.6794 6.09619L21.9658 7.26546C21.5245 6.96442 21.0644 6.69762 20.583 6.46598L19.7367 2.6665H12.2627ZM14.4033 5.33317H17.596L18.2549 8.2915L18.9163 8.55192C19.6646 8.84495 20.364 9.24829 20.9919 9.74984L21.5492 10.1925L24.4398 9.28369L26.0361 12.0493L23.8018 14.0988L23.9085 14.8019C24.0342 15.5795 24.0098 16.4744 23.9085 17.1978L23.8018 17.9009L26.0361 19.9504L24.4398 22.716L21.5492 21.8071L20.9919 22.2498C20.364 22.7514 19.6646 23.1547 18.9163 23.4478L18.2549 23.7082L17.596 26.6665H14.4033L13.7445 23.7082L13.083 23.4478C12.3348 23.1547 11.6353 22.7514 11.0075 22.2498L10.4502 21.8071L7.55957 22.716L5.96322 19.9504L8.19759 17.9009L8.09082 17.1978C7.96059 16.4045 7.98058 15.4966 8.09082 14.8019L8.19759 14.0988L5.96322 12.0493L7.55957 9.28369L10.4502 10.1925L11.0075 9.74984C11.6353 9.24829 12.3348 8.84495 13.083 8.55192L13.7445 8.2915L14.4033 5.33317ZM15.9997 10.6665C13.0699 10.6665 10.6663 13.0701 10.6663 15.9998C10.6663 18.9296 13.0699 21.3332 15.9997 21.3332C18.9294 21.3332 21.333 18.9296 21.333 15.9998C21.333 13.0701 18.9294 10.6665 15.9997 10.6665ZM15.9997 13.3332C17.4882 13.3332 18.6663 14.5113 18.6663 15.9998C18.6663 17.4884 17.4882 18.6665 15.9997 18.6665C14.5111 18.6665 13.333 17.4884 13.333 15.9998C13.333 14.5113 14.5111 13.3332 15.9997 13.3332Z" fill="#475D5B"/>
</svg>
