<svg width="285" height="85" viewBox="0 0 285 85" fill="none" xmlns="http://www.w3.org/2000/svg">
<path d="M48.7538 31.8409C27.7877 33.2822 19.4134 56.3291 2 56.3291V85H28.4275H282.971L283 26.3522C265.383 30.6488 254.213 -0.754353 236.246 2.19598C216.492 5.43978 213.147 41.974 189.492 41.974C170.859 41.974 161.163 28.1015 142.739 30.5743C121.123 33.4754 117.28 70.9199 95.5077 72.6743C76.3211 74.2203 67.9618 30.5204 48.7538 31.8409Z" fill="url(#paint0_linear_29_1)" fill-opacity="0.25"/>
<path d="M2 55.9575C19.4134 55.9575 27.7877 33.0683 48.7538 31.6368C67.9618 30.3254 76.3211 73.7264 95.5077 72.191C117.28 70.4486 121.123 33.2601 142.739 30.3789C161.163 27.923 170.859 41.7006 189.492 41.7006C213.147 41.7006 216.492 5.41625 236.246 2.19464C254.213 -0.735515 265.383 30.4528 283 26.1856" stroke="#4CBC9A" stroke-width="4" stroke-linecap="round"/>
<defs>
<linearGradient id="paint0_linear_29_1" x1="142.5" y1="2" x2="142.5" y2="85" gradientUnits="userSpaceOnUse">
<stop stop-color="#4CBC9A"/>
<stop offset="1" stop-color="#4CBC9A" stop-opacity="0"/>
</linearGradient>
</defs>
</svg>
