<svg width="72" height="72" viewBox="0 0 72 72" fill="none" xmlns="http://www.w3.org/2000/svg">
<rect width="72" height="72" rx="36" fill="#FCC43E"/>
<path d="M52.2365 37.8435C49.9956 37.0315 47.5096 37.212 45.4077 38.3374L41.9812 39.8788C41.7043 38.3007 40.4923 37.1148 38.9963 37.0692C38.9875 37.069 33.8587 37.0111 33.8587 37.0111C29.7535 35.885 27.0862 37.332 25.5646 38.7579C25.2534 39.0496 24.9797 39.3498 24.7388 39.646C24.3283 39.2038 23.6035 39.0856 23.0749 39.3762L18.4193 41.9354C17.8154 42.2674 17.5527 42.9956 17.8059 43.6358L22.3559 55.1377C22.6548 55.8934 23.5736 56.2274 24.2906 55.8333L28.9462 53.2742C29.3826 53.0343 29.6395 52.5873 29.6536 52.1162H36.6022C37.7356 52.1162 38.8546 51.8185 39.8382 51.2553C39.8382 51.2553 52.9065 43.7589 52.9803 43.6919C54.8104 42.027 54.8668 38.7966 52.2365 37.8435C53.2858 38.2237 49.9956 37.0315 52.2365 37.8435ZM24.3322 52.688L20.7968 43.7508L23.033 42.5216L26.5684 51.4588L24.3322 52.688ZM51.2316 41.5773L38.4747 48.8826C37.9054 49.2087 37.2578 49.381 36.6019 49.381H28.6919L26.036 42.667C26.2636 42.2034 26.7117 41.4342 27.4394 40.7522C28.93 39.3555 30.8946 38.998 33.2791 39.6898C33.3983 39.7244 33.5218 39.7427 33.6459 39.7441L38.918 39.8034C39.0526 39.815 39.3011 40.1143 39.3011 40.5679C39.3011 41.035 39.0445 41.3327 38.9103 41.3327H33.7302V44.0679H38.9103C39.552 44.0679 40.1492 43.8509 40.6463 43.4791L46.5779 40.8109C46.6094 40.7968 46.6401 40.7815 46.6704 40.765C48.0933 39.9914 49.7815 39.8636 51.3018 40.4145C51.9035 40.6327 51.4688 41.3364 51.2316 41.5773ZM43 35.7079C37.5669 35.7079 33.1467 31.2874 33.1467 25.8539C33.1467 20.4205 37.5668 16 43 16C48.4331 16 52.8532 20.4205 52.8532 25.8539C52.8532 31.2874 48.433 35.7079 43 35.7079ZM43 18.7352C39.0775 18.7352 35.8864 21.9286 35.8864 25.8539C35.8864 29.7792 39.0776 32.9727 43 32.9727C46.9225 32.9727 50.1136 29.7791 50.1136 25.8539C50.1136 21.9287 46.9224 18.7352 43 18.7352Z" fill="#F2F7F5"/>
<path d="M43.6362 24.7391C42.5469 24.2918 42.4627 24.0996 42.4627 23.8767C42.4627 23.7344 42.5333 23.4036 43.1876 23.4036C43.7862 23.4036 44.532 23.7396 45.058 24.0858L45.7897 22.1679C45.2673 21.8353 44.6324 21.5496 44.0388 21.4582V20.2109H42.0879V21.5796C40.9289 21.9449 40.2147 22.8714 40.2147 24.0247C40.2147 25.5522 41.4368 26.2342 42.6304 26.6991C43.5841 27.0827 43.664 27.3764 43.664 27.6216C43.664 27.9988 43.3164 28.2425 42.7785 28.2425C42.077 28.2425 41.2614 27.8379 40.6903 27.3951L39.9863 29.3438C40.5686 29.7953 41.2426 30.0932 42.0009 30.2044V31.4968H43.964V30.09C45.1592 29.7094 45.9242 28.7192 45.9242 27.5353C45.9242 25.878 44.7015 25.1705 43.6362 24.7391Z" fill="#F2F7F5"/>
</svg>
