<svg width="118" height="118" viewBox="0 0 118 118" fill="none" xmlns="http://www.w3.org/2000/svg">
<rect width="118" height="118" rx="30" fill="#FCFCFC"/>
<path d="M59.0003 48.5835C57.7503 48.5835 56.917 49.4168 56.917 50.6668C56.917 51.9168 57.7503 52.7502 59.0003 52.7502C60.2503 52.7502 61.0837 51.9168 61.0837 50.6668C61.0837 49.4168 60.2503 48.5835 59.0003 48.5835Z" fill="#363B64"/>
<path d="M59.0003 38.1667C47.542 38.1667 38.167 47.5417 38.167 59.0001C38.167 70.4584 47.542 79.8334 59.0003 79.8334C70.4587 79.8334 79.8337 70.4584 79.8337 59.0001C79.8337 47.5417 70.4587 38.1667 59.0003 38.1667ZM59.0003 75.6668C49.8337 75.6668 42.3337 68.1667 42.3337 59.0001C42.3337 49.8334 49.8337 42.3334 59.0003 42.3334C68.167 42.3334 75.667 49.8334 75.667 59.0001C75.667 68.1667 68.167 75.6668 59.0003 75.6668Z" fill="#363B64"/>
<path d="M59.0003 54.8335C57.7503 54.8335 56.917 55.6668 56.917 56.9168V67.3335C56.917 68.5835 57.7503 69.4168 59.0003 69.4168C60.2503 69.4168 61.0837 68.5835 61.0837 67.3335V56.9168C61.0837 55.6668 60.2503 54.8335 59.0003 54.8335Z" fill="#363B64"/>
</svg>
