<svg width="118" height="118" viewBox="0 0 118 118" fill="none" xmlns="http://www.w3.org/2000/svg">
<rect width="118" height="118" rx="30" fill="#FCFCFC"/>
<path d="M59.0003 48.583C57.7503 48.583 56.917 49.4163 56.917 50.6663C56.917 51.9163 57.7503 52.7497 59.0003 52.7497C60.2503 52.7497 61.0837 51.9163 61.0837 50.6663C61.0837 49.4163 60.2503 48.583 59.0003 48.583Z" fill="#363B64"/>
<path d="M59.0003 38.1665C47.542 38.1665 38.167 47.5415 38.167 58.9998C38.167 70.4582 47.542 79.8332 59.0003 79.8332C70.4587 79.8332 79.8337 70.4582 79.8337 58.9998C79.8337 47.5415 70.4587 38.1665 59.0003 38.1665ZM59.0003 75.6665C49.8337 75.6665 42.3337 68.1665 42.3337 58.9998C42.3337 49.8332 49.8337 42.3332 59.0003 42.3332C68.167 42.3332 75.667 49.8332 75.667 58.9998C75.667 68.1665 68.167 75.6665 59.0003 75.6665Z" fill="#363B64"/>
<path d="M59.0003 54.833C57.7503 54.833 56.917 55.6663 56.917 56.9163V67.333C56.917 68.583 57.7503 69.4163 59.0003 69.4163C60.2503 69.4163 61.0837 68.583 61.0837 67.333V56.9163C61.0837 55.6663 60.2503 54.833 59.0003 54.833Z" fill="#363B64"/>
</svg>
