<svg width="48" height="48" viewBox="0 0 48 48" fill="none" xmlns="http://www.w3.org/2000/svg">
<path d="M0 24C0 10.7452 10.7452 0 24 0C37.2548 0 48 10.7452 48 24C48 37.2548 37.2548 48 24 48C10.7452 48 0 37.2548 0 24Z" fill="#FB7D5B"/>
<path d="M27.7055 18.525C27.7055 18.7313 27.6914 18.9375 27.6656 19.1414C27.6773 19.0594 27.689 18.975 27.6984 18.893C27.6422 19.3008 27.5344 19.6969 27.3773 20.0766C27.4078 20.0016 27.4406 19.9266 27.4711 19.8516C27.314 20.2219 27.1125 20.5688 26.8664 20.8875C26.9156 20.8242 26.9648 20.761 27.014 20.6977C26.7703 21.0117 26.4867 21.2953 26.1726 21.5391C26.2359 21.4899 26.2992 21.4407 26.3625 21.3914C26.0437 21.6352 25.6969 21.8391 25.3265 21.9961C25.4015 21.9657 25.4765 21.9328 25.5515 21.9024C25.1719 22.0594 24.7758 22.1672 24.368 22.2235C24.45 22.2118 24.5344 22.2 24.6164 22.1907C24.2062 22.2446 23.7937 22.2446 23.3836 22.1907C23.4656 22.2024 23.55 22.2141 23.632 22.2235C23.2242 22.1672 22.8281 22.0594 22.4484 21.9024C22.5234 21.9328 22.5984 21.9657 22.6734 21.9961C22.3031 21.8391 21.9562 21.6375 21.6375 21.3914C21.7008 21.4407 21.764 21.4899 21.8273 21.5391C21.5133 21.2953 21.2297 21.0117 20.9859 20.6977C21.0351 20.761 21.0844 20.8242 21.1336 20.8875C20.8898 20.5688 20.6859 20.2219 20.5289 19.8516C20.5594 19.9266 20.5922 20.0016 20.6226 20.0766C20.4656 19.6969 20.3578 19.3008 20.3015 18.893C20.3133 18.975 20.325 19.0594 20.3344 19.1414C20.2804 18.7313 20.2804 18.3188 20.3344 17.9086C20.3226 17.9907 20.3109 18.075 20.3015 18.1571C20.3578 17.7493 20.4656 17.3532 20.6226 16.9735C20.5922 17.0485 20.5594 17.1235 20.5289 17.1985C20.6859 16.8282 20.8875 16.4813 21.1336 16.1625C21.0844 16.2258 21.0351 16.2891 20.9859 16.3524C21.2297 16.0383 21.5133 15.7547 21.8273 15.511C21.764 15.5602 21.7008 15.6094 21.6375 15.6586C21.9562 15.4149 22.3031 15.211 22.6734 15.0539C22.5984 15.0844 22.5234 15.1172 22.4484 15.1477C22.8281 14.9907 23.2242 14.8828 23.632 14.8266C23.55 14.8383 23.4656 14.85 23.3836 14.8594C23.7937 14.8055 24.2062 14.8055 24.6164 14.8594C24.5344 14.8477 24.45 14.836 24.368 14.8266C24.7758 14.8828 25.1719 14.9907 25.5515 15.1477C25.4765 15.1172 25.4015 15.0844 25.3265 15.0539C25.6969 15.211 26.0437 15.4125 26.3625 15.6586C26.2992 15.6094 26.2359 15.5602 26.1726 15.511C26.4867 15.7547 26.7703 16.0383 27.014 16.3524C26.9648 16.2891 26.9156 16.2258 26.8664 16.1625C27.1101 16.4813 27.314 16.8282 27.4711 17.1985C27.4406 17.1235 27.4078 17.0485 27.3773 16.9735C27.5344 17.3532 27.6422 17.7493 27.6984 18.1571C27.6867 18.075 27.675 17.9907 27.6656 17.9086C27.6914 18.1125 27.7031 18.3188 27.7055 18.525C27.7078 19.0149 28.1344 19.486 28.643 19.4625C29.1492 19.4391 29.5828 19.05 29.5805 18.525C29.5758 17.4024 29.2383 16.2539 28.5773 15.3399C28.3992 15.0938 28.2094 14.8524 27.9984 14.6344C27.7851 14.4141 27.5508 14.2243 27.307 14.0391C26.864 13.7016 26.3695 13.4532 25.8445 13.261C23.7281 12.4852 21.1758 13.1766 19.7437 14.9203C19.5469 15.1594 19.3594 15.4078 19.2 15.675C19.0406 15.9399 18.9164 16.2211 18.8015 16.5071C18.5859 17.0368 18.4758 17.5993 18.4312 18.1688C18.3445 19.2844 18.6351 20.4492 19.2164 21.4055C19.7765 22.3289 20.6226 23.1211 21.6117 23.5688C21.9023 23.7 22.2 23.8219 22.5094 23.9086C22.8164 23.993 23.1281 24.0399 23.4445 24.0774C24.0211 24.1453 24.6094 24.0985 25.1789 23.9836C27.3422 23.543 29.1539 21.6797 29.489 19.493C29.5383 19.1743 29.5758 18.8555 29.5758 18.5321C29.5781 18.0422 29.1422 17.5711 28.6383 17.5946C28.132 17.611 27.7055 18 27.7055 18.525ZM30.8156 33.1805C30.3562 33.1805 29.8969 33.1805 29.4375 33.1805C28.343 33.1805 27.2508 33.1805 26.1562 33.1805C24.839 33.1805 23.5219 33.1805 22.2023 33.1805C21.0656 33.1805 19.9289 33.1805 18.7898 33.1805C18.2578 33.1805 17.7258 33.1852 17.1937 33.1805C17.1351 33.1805 17.0765 33.1758 17.0203 33.1688C17.1023 33.1805 17.1867 33.1922 17.2687 33.2016C17.175 33.1875 17.0859 33.1617 16.9992 33.1266C17.0742 33.1571 17.1492 33.1899 17.2242 33.2203C17.1304 33.1805 17.0437 33.1289 16.9617 33.0657C17.025 33.1149 17.0883 33.1641 17.1515 33.2133C17.0812 33.1547 17.0156 33.0914 16.9594 33.0211C17.0086 33.0844 17.0578 33.1477 17.107 33.211C17.0437 33.1289 16.9945 33.0422 16.9523 32.9485C16.9828 33.0235 17.0156 33.0985 17.0461 33.1735C17.0109 33.0868 16.9875 32.9953 16.9711 32.9039C16.9828 32.986 16.9945 33.0703 17.0039 33.1524C16.9664 32.8688 16.9922 32.5688 16.9922 32.2828C16.9922 31.9477 16.9922 31.6149 16.9922 31.2797C16.9922 31.0289 17.0062 30.7805 17.039 30.5321C17.0273 30.6141 17.0156 30.6985 17.0062 30.7805C17.0719 30.3 17.1984 29.8289 17.3883 29.3813C17.3578 29.4563 17.325 29.5313 17.2945 29.6063C17.4773 29.1797 17.7117 28.7789 17.9953 28.411C17.9461 28.4742 17.8969 28.5375 17.8476 28.6008C18.1312 28.2375 18.457 27.9094 18.8226 27.6258C18.7594 27.675 18.6961 27.7242 18.6328 27.7735C19.0008 27.4899 19.4015 27.2555 19.8281 27.0727C19.7531 27.1032 19.6781 27.136 19.6031 27.1664C20.0508 26.9789 20.5195 26.85 21.0023 26.7844C20.9203 26.7961 20.8359 26.8078 20.7539 26.8172C21.1008 26.7727 21.4453 26.7703 21.7945 26.7703C22.2234 26.7703 22.6523 26.7703 23.0812 26.7703C24.082 26.7703 25.0828 26.7703 26.0836 26.7703C26.4703 26.7703 26.8547 26.768 27.2414 26.8172C27.1594 26.8055 27.075 26.7938 26.993 26.7844C27.4734 26.85 27.9445 26.9766 28.3922 27.1664C28.3172 27.136 28.2422 27.1032 28.1672 27.0727C28.5937 27.2555 28.9945 27.4899 29.3625 27.7735C29.2992 27.7242 29.2359 27.675 29.1726 27.6258C29.5359 27.9094 29.864 28.2352 30.1476 28.6008C30.0984 28.5375 30.0492 28.4742 30 28.411C30.2836 28.7789 30.518 29.1797 30.7008 29.6063C30.6703 29.5313 30.6375 29.4563 30.607 29.3813C30.7945 29.8289 30.9234 30.2977 30.9891 30.7805C30.9773 30.6985 30.9656 30.6141 30.9562 30.5321C31.0008 30.886 31.0031 31.2375 31.0031 31.5938C31.0031 31.9805 31.0031 32.3672 31.0031 32.7539C31.0031 32.8875 31.0078 33.0211 30.9914 33.1524C31.0031 33.0703 31.0148 32.986 31.0242 32.9039C31.0101 32.9977 30.9844 33.0868 30.9492 33.1735C30.9797 33.0985 31.0125 33.0235 31.043 32.9485C31.0031 33.0422 30.9516 33.1289 30.8883 33.211C30.9375 33.1477 30.9867 33.0844 31.0359 33.0211C30.9773 33.0914 30.9141 33.1571 30.8437 33.2133C30.907 33.1641 30.9703 33.1149 31.0336 33.0657C30.9516 33.1289 30.8648 33.1782 30.7711 33.2203C30.8461 33.1899 30.9211 33.1571 30.9961 33.1266C30.9094 33.1617 30.818 33.1852 30.7266 33.2016C30.8086 33.1899 30.893 33.1782 30.975 33.1688C30.9234 33.1758 30.8695 33.1782 30.8156 33.1805C30.5742 33.1828 30.3258 33.2836 30.1523 33.4547C29.9906 33.6164 29.8664 33.8836 29.8781 34.118C29.9016 34.6196 30.2906 35.0625 30.8156 35.0555C31.7273 35.0414 32.5289 34.4461 32.7961 33.5719C32.9016 33.225 32.8781 32.8524 32.8781 32.4961C32.8781 31.6805 32.9039 30.8719 32.7633 30.0633C32.557 28.8797 31.9617 27.7664 31.1461 26.8922C30.3305 26.018 29.2336 25.3758 28.0734 25.0899C27.4078 24.9258 26.7375 24.9 26.0578 24.9C25.3594 24.9 24.6633 24.9 23.9648 24.9C23.2758 24.9 22.589 24.9 21.9 24.9C21.2039 24.9 20.5125 24.9328 19.8351 25.1133C18.6844 25.418 17.6015 26.0672 16.8023 26.9485C15.9961 27.8367 15.4125 28.9524 15.2226 30.143C15.0961 30.9422 15.1219 31.7438 15.1219 32.55C15.1219 32.9203 15.1008 33.3071 15.2344 33.661C15.4078 34.1157 15.6844 34.4742 16.0898 34.7438C16.4062 34.9524 16.807 35.0532 17.182 35.0578C17.3648 35.0602 17.5476 35.0578 17.7304 35.0578C18.1992 35.0578 18.6656 35.0578 19.1344 35.0578C19.8 35.0578 20.4633 35.0578 21.1289 35.0578C21.9023 35.0578 22.6758 35.0578 23.4492 35.0578C24.2437 35.0578 25.0359 35.0578 25.8305 35.0578C26.557 35.0578 27.2812 35.0578 28.0078 35.0578C28.5773 35.0578 29.1469 35.0578 29.714 35.0578C30.0398 35.0578 30.3656 35.0578 30.6914 35.0578C30.7336 35.0578 30.7758 35.0578 30.818 35.0578C31.3078 35.0578 31.7789 34.6266 31.7555 34.1203C31.732 33.6094 31.343 33.1805 30.8156 33.1805Z" fill="#F2F7F5"/>
</svg>
