<svg width="80" height="24" viewBox="0 0 80 24" fill="none" xmlns="http://www.w3.org/2000/svg">
<path d="M68.0012 9.35999C67.6543 9.35999 67.3109 9.4283 66.9904 9.56103C66.67 9.69377 66.3788 9.88832 66.1335 10.1336C65.8883 10.3788 65.6937 10.67 65.561 10.9904C65.4283 11.3109 65.36 11.6543 65.36 12.0012C65.36 12.348 65.4283 12.6915 65.561 13.0119C65.6937 13.3324 65.8883 13.6235 66.1335 13.8688C66.3788 14.1141 66.67 14.3086 66.9904 14.4413C67.3109 14.5741 67.6543 14.6424 68.0012 14.6424C68.7017 14.6422 69.3734 14.3638 69.8686 13.8684C70.3638 13.3729 70.6419 12.7011 70.6418 12.0006C70.6416 11.3001 70.3632 10.6284 69.8677 10.1332C69.3723 9.63794 68.7004 9.35983 68 9.35999H68.0012ZM59.6012 9.35999C59.2543 9.35999 58.9109 9.4283 58.5904 9.56103C58.27 9.69377 57.9788 9.88832 57.7336 10.1336C57.4883 10.3788 57.2937 10.67 57.161 10.9904C57.0283 11.3109 56.96 11.6543 56.96 12.0012C56.96 12.348 57.0283 12.6915 57.161 13.0119C57.2937 13.3324 57.4883 13.6235 57.7336 13.8688C57.9788 14.1141 58.27 14.3086 58.5904 14.4413C58.9109 14.5741 59.2543 14.6424 59.6012 14.6424C60.3017 14.6422 60.9734 14.3638 61.4686 13.8684C61.9638 13.3729 62.2419 12.7011 62.2418 12.0006C62.2416 11.3001 61.9632 10.6284 61.4677 10.1332C60.9723 9.63794 60.3005 9.35983 59.6 9.35999H59.6012ZM76.4012 9.35999C76.0543 9.35999 75.7109 9.4283 75.3904 9.56103C75.07 9.69377 74.7788 9.88832 74.5336 10.1336C74.2883 10.3788 74.0937 10.67 73.961 10.9904C73.8283 11.3109 73.76 11.6543 73.76 12.0012C73.76 12.348 73.8283 12.6915 73.961 13.0119C74.0937 13.3324 74.2883 13.6235 74.5336 13.8688C74.7788 14.1141 75.07 14.3086 75.3904 14.4413C75.7109 14.5741 76.0543 14.6424 76.4012 14.6424C77.1017 14.6422 77.7734 14.3638 78.2686 13.8684C78.7638 13.3729 79.0419 12.7011 79.0418 12.0006C79.0416 11.3001 78.7632 10.6284 78.2677 10.1332C77.7723 9.63794 77.1005 9.35983 76.4 9.35999H76.4012Z" fill="#475D5B"/>
<g clip-path="url(#clip0_6_397)">
<path d="M23 19H18.93C18.6648 19 18.4104 18.8946 18.2229 18.7071C18.0354 18.5196 17.93 18.2652 17.93 18V15H6V18C6 18.2652 5.89464 18.5196 5.70711 18.7071C5.51957 18.8946 5.26522 19 5 19H1C0.734784 19 0.48043 18.8946 0.292893 18.7071C0.105357 18.5196 0 18.2652 0 18V8C0 7.20435 0.31607 6.44129 0.87868 5.87868C1.44129 5.31607 2.20435 5 3 5H21C21.7956 5 22.5587 5.31607 23.1213 5.87868C23.6839 6.44129 24 7.20435 24 8V18C24 18.2652 23.8946 18.5196 23.7071 18.7071C23.5196 18.8946 23.2652 19 23 19ZM19.93 17H22V8C22.0015 7.86827 21.9766 7.73757 21.9269 7.61558C21.8771 7.49359 21.8035 7.38276 21.7104 7.28961C21.6172 7.19646 21.5064 7.12285 21.3844 7.07312C21.2624 7.02339 21.1317 6.99853 21 7H3C2.86827 6.99853 2.73757 7.02339 2.61558 7.07312C2.49359 7.12285 2.38276 7.19646 2.28961 7.28961C2.19646 7.38276 2.12285 7.49359 2.07312 7.61558C2.02339 7.73757 1.99853 7.86827 2 8V17H4V14C4 13.7348 4.10536 13.4804 4.29289 13.2929C4.48043 13.1054 4.73478 13 5 13H18.93C19.1952 13 19.4496 13.1054 19.6371 13.2929C19.8246 13.4804 19.93 13.7348 19.93 14V17Z" fill="#475D5B"/>
<path d="M18.9331 7H5.00012C4.73491 7 4.48055 6.89464 4.29302 6.70711C4.10548 6.51957 4.00012 6.26522 4.00012 6V1C4.00012 0.734784 4.10548 0.48043 4.29302 0.292893C4.48055 0.105357 4.73491 0 5.00012 0L18.9331 0C19.1983 0 19.4527 0.105357 19.6402 0.292893C19.8278 0.48043 19.9331 0.734784 19.9331 1V6C19.9331 6.26522 19.8278 6.51957 19.6402 6.70711C19.4527 6.89464 19.1983 7 18.9331 7ZM6.00012 5H17.9331V2H6.00012V5ZM17.0331 24H6.90012C6.13099 24 5.39337 23.6945 4.84951 23.1506C4.30566 22.6068 4.00012 21.8691 4.00012 21.1V14C4.00012 13.7348 4.10548 13.4804 4.29302 13.2929C4.48055 13.1054 4.73491 13 5.00012 13H18.9301C19.1953 13 19.4497 13.1054 19.6372 13.2929C19.8248 13.4804 19.9301 13.7348 19.9301 14V21.1C19.9301 21.8686 19.625 22.6058 19.0818 23.1495C18.5386 23.6933 17.8017 23.9992 17.0331 24ZM6.00012 15V21.1C6.00012 21.3387 6.09494 21.5676 6.26373 21.7364C6.43251 21.9052 6.66143 22 6.90012 22H17.0331C17.2718 22 17.5007 21.9052 17.6695 21.7364C17.8383 21.5676 17.9331 21.3387 17.9331 21.1V15H6.00012ZM20.0001 10H19.0001C18.7349 10 18.4806 9.89464 18.293 9.70711C18.1055 9.51957 18.0001 9.26522 18.0001 9C18.0001 8.73478 18.1055 8.48043 18.293 8.29289C18.4806 8.10536 18.7349 8 19.0001 8H20.0001C20.2653 8 20.5197 8.10536 20.7072 8.29289C20.8948 8.48043 21.0001 8.73478 21.0001 9C21.0001 9.26522 20.8948 9.51957 20.7072 9.70711C20.5197 9.89464 20.2653 10 20.0001 10Z" fill="#475D5B"/>
<path d="M14.9999 18H8.99988C8.73466 18 8.48031 17.8946 8.29277 17.7071C8.10523 17.5196 7.99988 17.2652 7.99988 17C7.99988 16.7348 8.10523 16.4804 8.29277 16.2929C8.48031 16.1054 8.73466 16 8.99988 16H14.9999C15.2651 16 15.5194 16.1054 15.707 16.2929C15.8945 16.4804 15.9999 16.7348 15.9999 17C15.9999 17.2652 15.8945 17.5196 15.707 17.7071C15.5194 17.8946 15.2651 18 14.9999 18ZM11.9999 21H8.99988C8.73466 21 8.48031 20.8946 8.29277 20.7071C8.10523 20.5196 7.99988 20.2652 7.99988 20C7.99988 19.7348 8.10523 19.4804 8.29277 19.2929C8.48031 19.1054 8.73466 19 8.99988 19H11.9999C12.2651 19 12.5194 19.1054 12.707 19.2929C12.8945 19.4804 12.9999 19.7348 12.9999 20C12.9999 20.2652 12.8945 20.5196 12.707 20.7071C12.5194 20.8946 12.2651 21 11.9999 21Z" fill="#475D5B"/>
</g>
<defs>
<clipPath id="clip0_6_397">
<rect width="24" height="24" fill="white"/>
</clipPath>
</defs>
</svg>
