<svg width="160" height="160" viewBox="0 0 160 160" fill="none" xmlns="http://www.w3.org/2000/svg">
<g filter="url(#filter0_d_618_114)">
<path d="M50 60C50 43.4315 63.4315 30 80 30C96.5685 30 110 43.4315 110 60C110 76.5685 96.5685 90 80 90C63.4315 90 50 76.5685 50 60Z" fill="#F2F7F5"/>
<path d="M76.2631 46.6667L75.4167 50.4662C74.9353 50.6978 74.4752 50.9646 74.0339 51.2656L70.3204 50.0964L66.5834 56.5703L69.3985 59.1484C69.2885 59.9648 69.3383 60.3672 69.3985 60.8516L66.5834 63.4297L70.3204 69.9037L74.0339 68.7344C74.4752 69.0354 74.9353 69.3022 75.4167 69.5339L76.2631 73.3333H83.737L84.5834 69.5339C85.0647 69.3022 85.5249 69.0354 85.9662 68.7344L89.6797 69.9037L93.4167 63.4297L90.6016 60.8516C90.6246 60.5682 90.6664 60.2845 90.6667 60C90.6678 59.7069 90.6216 59.4108 90.6016 59.1484L93.4167 56.5703L89.6797 50.0964L85.9662 51.2656C85.5249 50.9646 85.0647 50.6978 84.5834 50.4662L83.737 46.6667H76.2631ZM78.4037 49.3333H81.5964L82.2552 52.2917L82.9167 52.5521C83.6649 52.8451 84.3644 53.2485 84.9922 53.75L85.5495 54.1927L88.4401 53.2839L90.0365 56.0495L87.8021 58.099L87.9089 58.8021C88.0346 59.5797 88.0101 60.4746 87.9089 61.1979L87.8021 61.901L90.0365 63.9505L88.4401 66.7162L85.5495 65.8073L84.9922 66.25C84.3644 66.7516 83.6649 67.1549 82.9167 67.4479L82.2552 67.7083L81.5964 70.6667H78.4037L77.7448 67.7083L77.0834 67.4479C76.3351 67.1549 75.6357 66.7516 75.0079 66.25L74.4506 65.8073L71.5599 66.7162L69.9636 63.9505L72.198 61.901L72.0912 61.1979C71.961 60.4046 71.9809 59.4967 72.0912 58.8021L72.198 58.099L69.9636 56.0495L71.5599 53.2839L74.4506 54.1927L75.0079 53.75C75.6357 53.2485 76.3351 52.8451 77.0834 52.5521L77.7448 52.2917L78.4037 49.3333ZM80 54.6667C77.0703 54.6667 74.6667 57.0703 74.6667 60C74.6667 62.9297 77.0703 65.3333 80 65.3333C82.9298 65.3333 85.3334 62.9297 85.3334 60C85.3334 57.0703 82.9298 54.6667 80 54.6667ZM80 57.3333C81.4886 57.3333 82.6667 58.5115 82.6667 60C82.6667 61.4886 81.4886 62.6667 80 62.6667C78.5115 62.6667 77.3334 61.4886 77.3334 60C77.3334 58.5115 78.5115 57.3333 80 57.3333Z" fill="#475D5B"/>
</g>
<defs>
<filter id="filter0_d_618_114" x="0" y="0" width="160" height="160" filterUnits="userSpaceOnUse" color-interpolation-filters="sRGB">
<feFlood flood-opacity="0" result="BackgroundImageFix"/>
<feColorMatrix in="SourceAlpha" type="matrix" values="0 0 0 0 0 0 0 0 0 0 0 0 0 0 0 0 0 0 127 0" result="hardAlpha"/>
<feOffset dy="20"/>
<feGaussianBlur stdDeviation="25"/>
<feColorMatrix type="matrix" values="0 0 0 0 0.74902 0 0 0 0 0.0823529 0 0 0 0 0.423529 0 0 0 0.05 0"/>
<feBlend mode="normal" in2="BackgroundImageFix" result="effect1_dropShadow_618_114"/>
<feBlend mode="normal" in="SourceGraphic" in2="effect1_dropShadow_618_114" result="shape"/>
</filter>
</defs>
</svg>
