<svg width="40" height="40" viewBox="0 0 40 40" fill="none" xmlns="http://www.w3.org/2000/svg">
<path d="M26.1755 10.875C26.1755 11.2187 26.1521 11.5625 26.1091 11.9023C26.1286 11.7656 26.1481 11.625 26.1638 11.4883C26.07 12.168 25.8903 12.8281 25.6286 13.4609C25.6794 13.3359 25.7341 13.2109 25.7849 13.0859C25.5231 13.7031 25.1872 14.2812 24.7771 14.8125C24.8591 14.707 24.9411 14.6016 25.0231 14.4961C24.6169 15.0195 24.1442 15.4922 23.6208 15.8984C23.7263 15.8164 23.8317 15.7344 23.9372 15.6523C23.406 16.0586 22.8278 16.3984 22.2106 16.6601C22.3356 16.6094 22.4606 16.5547 22.5856 16.5039C21.9528 16.7656 21.2927 16.9453 20.613 17.0391C20.7497 17.0195 20.8903 17 21.0271 16.9844C20.3435 17.0742 19.656 17.0742 18.9724 16.9844C19.1091 17.0039 19.2497 17.0234 19.3864 17.0391C18.7067 16.9453 18.0466 16.7656 17.4138 16.5039C17.5388 16.5547 17.6638 16.6094 17.7888 16.6601C17.1716 16.3984 16.5935 16.0625 16.0622 15.6523C16.1677 15.7344 16.2731 15.8164 16.3786 15.8984C15.8552 15.4922 15.3825 15.0195 14.9763 14.4961C15.0583 14.6016 15.1403 14.707 15.2224 14.8125C14.8161 14.2812 14.4763 13.7031 14.2145 13.0859C14.2653 13.2109 14.32 13.3359 14.3708 13.4609C14.1091 12.8281 13.9294 12.168 13.8356 11.4883C13.8552 11.625 13.8747 11.7656 13.8903 11.9023C13.8005 11.2187 13.8005 10.5312 13.8903 9.84765C13.8708 9.98437 13.8513 10.125 13.8356 10.2617C13.9294 9.58202 14.1091 8.92187 14.3708 8.28905C14.32 8.41405 14.2653 8.53905 14.2145 8.66405C14.4763 8.04687 14.8122 7.46874 15.2224 6.93749C15.1403 7.04296 15.0583 7.14843 14.9763 7.2539C15.3825 6.73046 15.8552 6.2578 16.3786 5.85155C16.2731 5.93359 16.1677 6.01562 16.0622 6.09765C16.5935 5.6914 17.1716 5.35155 17.7888 5.08984C17.6638 5.14062 17.5388 5.1953 17.4138 5.24609C18.0466 4.98437 18.7067 4.80468 19.3864 4.71093C19.2497 4.73046 19.1091 4.74999 18.9724 4.76562C19.656 4.67577 20.3435 4.67577 21.0271 4.76562C20.8903 4.74609 20.7497 4.72655 20.613 4.71093C21.2927 4.80468 21.9528 4.98437 22.5856 5.24609C22.4606 5.1953 22.3356 5.14062 22.2106 5.08984C22.8278 5.35155 23.406 5.68749 23.9372 6.09765C23.8317 6.01562 23.7263 5.93359 23.6208 5.85155C24.1442 6.2578 24.6169 6.73046 25.0231 7.2539C24.9411 7.14843 24.8591 7.04296 24.7771 6.93749C25.1833 7.46874 25.5231 8.04687 25.7849 8.66405C25.7341 8.53905 25.6794 8.41405 25.6286 8.28905C25.8903 8.92187 26.07 9.58202 26.1638 10.2617C26.1442 10.125 26.1247 9.98437 26.1091 9.84765C26.1521 10.1875 26.1716 10.5312 26.1755 10.875C26.1794 11.6914 26.8903 12.4766 27.738 12.4375C28.5817 12.3984 29.3044 11.75 29.3005 10.875C29.2927 9.0039 28.7302 7.08984 27.6286 5.5664C27.3317 5.15624 27.0153 4.7539 26.6638 4.39062C26.3083 4.02343 25.9177 3.70702 25.5114 3.39843C24.7731 2.83593 23.9489 2.42187 23.0739 2.10155C19.5466 0.808586 15.2927 1.96093 12.906 4.86718C12.5778 5.26562 12.2653 5.67968 11.9997 6.12499C11.7341 6.5664 11.527 7.03515 11.3356 7.51171C10.9763 8.39452 10.7927 9.33202 10.7184 10.2812C10.5739 12.1406 11.0583 14.082 12.027 15.6758C12.9606 17.2148 14.3708 18.5351 16.0192 19.2812C16.5036 19.5 16.9997 19.7031 17.5153 19.8476C18.0271 19.9883 18.5466 20.0664 19.0739 20.1289C20.0349 20.2422 21.0153 20.1641 21.9646 19.9726C25.57 19.2383 28.5896 16.1328 29.1482 12.4883C29.2302 11.957 29.2927 11.4258 29.2927 10.8867C29.2966 10.0703 28.57 9.28515 27.7302 9.32421C26.8864 9.35155 26.1755 9.99999 26.1755 10.875ZM31.3591 35.3008C30.5935 35.3008 29.8278 35.3008 29.0622 35.3008C27.238 35.3008 25.4177 35.3008 23.5935 35.3008C21.3981 35.3008 19.2028 35.3008 17.0036 35.3008C15.1091 35.3008 13.2145 35.3008 11.3161 35.3008C10.4294 35.3008 9.54267 35.3086 8.65595 35.3008C8.55829 35.3008 8.46063 35.293 8.36688 35.2812C8.5036 35.3008 8.64423 35.3203 8.78095 35.3359C8.6247 35.3125 8.47626 35.2695 8.33173 35.2109C8.45673 35.2617 8.58173 35.3164 8.70673 35.3672C8.55048 35.3008 8.40595 35.2148 8.26923 35.1094C8.3747 35.1914 8.48017 35.2734 8.58564 35.3555C8.46845 35.2578 8.35907 35.1523 8.26532 35.0351C8.34735 35.1406 8.42938 35.2461 8.51142 35.3516C8.40595 35.2148 8.32392 35.0703 8.2536 34.9141C8.30438 35.0391 8.35907 35.1641 8.40985 35.2891C8.35126 35.1445 8.3122 34.9922 8.28485 34.8398C8.30438 34.9766 8.32392 35.1172 8.33954 35.2539C8.27704 34.7812 8.32001 34.2812 8.32001 33.8047C8.32001 33.2461 8.32001 32.6914 8.32001 32.1328C8.32001 31.7148 8.34345 31.3008 8.39813 30.8867C8.3786 31.0234 8.35907 31.1641 8.34345 31.3008C8.45282 30.5 8.66376 29.7148 8.98017 28.9687C8.92939 29.0937 8.8747 29.2187 8.82392 29.3437C9.1286 28.6328 9.51923 27.9648 9.99189 27.3516C9.90986 27.457 9.82782 27.5625 9.74579 27.668C10.2184 27.0625 10.7614 26.5156 11.3708 26.043C11.2653 26.125 11.1599 26.207 11.0544 26.2891C11.6677 25.8164 12.3356 25.4258 13.0466 25.1211C12.9216 25.1719 12.7966 25.2266 12.6716 25.2773C13.4177 24.9648 14.1989 24.75 15.0036 24.6406C14.8669 24.6601 14.7263 24.6797 14.5895 24.6953C15.1677 24.6211 15.7419 24.6172 16.3239 24.6172C17.0388 24.6172 17.7536 24.6172 18.4685 24.6172C20.1364 24.6172 21.8044 24.6172 23.4724 24.6172C24.1169 24.6172 24.7575 24.6133 25.4021 24.6953C25.2653 24.6758 25.1247 24.6562 24.988 24.6406C25.7888 24.75 26.5739 24.9609 27.32 25.2773C27.195 25.2266 27.07 25.1719 26.945 25.1211C27.656 25.4258 28.3239 25.8164 28.9372 26.2891C28.8317 26.207 28.7263 26.125 28.6208 26.043C29.2263 26.5156 29.7732 27.0586 30.2458 27.668C30.1638 27.5625 30.0817 27.457 29.9997 27.3516C30.4724 27.9648 30.863 28.6328 31.1677 29.3437C31.1169 29.2187 31.0622 29.0937 31.0114 28.9687C31.3239 29.7148 31.5388 30.4961 31.6482 31.3008C31.6286 31.1641 31.6091 31.0234 31.5935 30.8867C31.6677 31.4766 31.6716 32.0625 31.6716 32.6562C31.6716 33.3008 31.6716 33.9453 31.6716 34.5898C31.6716 34.8125 31.6794 35.0351 31.6521 35.2539C31.6716 35.1172 31.6911 34.9766 31.7068 34.8398C31.6833 34.9961 31.6403 35.1445 31.5817 35.2891C31.6325 35.1641 31.6872 35.0391 31.738 34.9141C31.6716 35.0703 31.5857 35.2148 31.4802 35.3516C31.5622 35.2461 31.6443 35.1406 31.7263 35.0351C31.6286 35.1523 31.5232 35.2617 31.406 35.3555C31.5114 35.2734 31.6169 35.1914 31.7224 35.1094C31.5857 35.2148 31.4411 35.2969 31.2849 35.3672C31.4099 35.3164 31.5349 35.2617 31.6599 35.2109C31.5153 35.2695 31.363 35.3086 31.2107 35.3359C31.3474 35.3164 31.488 35.2969 31.6247 35.2812C31.5388 35.293 31.4489 35.2969 31.3591 35.3008C30.9567 35.3047 30.5427 35.4726 30.2536 35.7578C29.9841 36.0273 29.7771 36.4726 29.7966 36.8633C29.8357 37.6992 30.4841 38.4375 31.3591 38.4258C32.8786 38.4023 34.2146 37.4101 34.6599 35.9531C34.8357 35.375 34.7966 34.7539 34.7966 34.1601C34.7966 32.8008 34.8396 31.4531 34.6052 30.1055C34.2614 28.1328 33.2693 26.2773 31.9099 24.8203C30.5505 23.3633 28.7224 22.293 26.7888 21.8164C25.6794 21.543 24.5622 21.5 23.4294 21.5C22.2653 21.5 21.1052 21.5 19.9411 21.5C18.7927 21.5 17.6481 21.5 16.4997 21.5C15.3395 21.5 14.1872 21.5547 13.0583 21.8555C11.1403 22.3633 9.33564 23.4453 8.0036 24.9141C6.65985 26.3945 5.68719 28.2539 5.37079 30.2383C5.15985 31.5703 5.20282 32.9062 5.20282 34.25C5.20282 34.8672 5.16766 35.5117 5.39032 36.1016C5.67938 36.8594 6.14032 37.457 6.8161 37.9062C7.34345 38.2539 8.01142 38.4219 8.63642 38.4297C8.9411 38.4336 9.24579 38.4297 9.55048 38.4297C10.3317 38.4297 11.1091 38.4297 11.8903 38.4297C12.9997 38.4297 14.1052 38.4297 15.2145 38.4297C16.5036 38.4297 17.7927 38.4297 19.0817 38.4297C20.406 38.4297 21.7263 38.4297 23.0505 38.4297C24.2614 38.4297 25.4685 38.4297 26.6794 38.4297C27.6286 38.4297 28.5778 38.4297 29.5232 38.4297C30.0661 38.4297 30.6091 38.4297 31.1521 38.4297C31.2224 38.4297 31.2927 38.4297 31.363 38.4297C32.1794 38.4297 32.9646 37.7109 32.9255 36.8672C32.8864 36.0156 32.238 35.3008 31.3591 35.3008Z" fill="#FFFFFE"/>
</svg>
