<svg width="40" height="40" viewBox="0 0 40 40" fill="none" xmlns="http://www.w3.org/2000/svg">
<path d="M26.176 10.875C26.176 11.2187 26.1525 11.5625 26.1096 11.9023C26.1291 11.7656 26.1486 11.625 26.1643 11.4883C26.0705 12.168 25.8908 12.8281 25.6291 13.4609C25.6799 13.3359 25.7346 13.2109 25.7854 13.0859C25.5236 13.7031 25.1877 14.2812 24.7775 14.8125C24.8596 14.707 24.9416 14.6016 25.0236 14.4961C24.6174 15.0195 24.1447 15.4922 23.6213 15.8984C23.7268 15.8164 23.8322 15.7344 23.9377 15.6523C23.4065 16.0586 22.8283 16.3984 22.2111 16.6601C22.3361 16.6094 22.4611 16.5547 22.5861 16.5039C21.9533 16.7656 21.2932 16.9453 20.6135 17.0391C20.7502 17.0195 20.8908 17 21.0275 16.9844C20.3439 17.0742 19.6564 17.0742 18.9729 16.9844C19.1096 17.0039 19.2502 17.0234 19.3869 17.0391C18.7072 16.9453 18.0471 16.7656 17.4143 16.5039C17.5393 16.5547 17.6643 16.6094 17.7893 16.6601C17.1721 16.3984 16.5939 16.0625 16.0627 15.6523C16.1682 15.7344 16.2736 15.8164 16.3791 15.8984C15.8557 15.4922 15.383 15.0195 14.9768 14.4961C15.0588 14.6016 15.1408 14.707 15.2228 14.8125C14.8166 14.2812 14.4768 13.7031 14.215 13.0859C14.2658 13.2109 14.3205 13.3359 14.3713 13.4609C14.1096 12.8281 13.9299 12.168 13.8361 11.4883C13.8557 11.625 13.8752 11.7656 13.8908 11.9023C13.801 11.2187 13.801 10.5312 13.8908 9.84765C13.8713 9.98437 13.8518 10.125 13.8361 10.2617C13.9299 9.58202 14.1096 8.92187 14.3713 8.28905C14.3205 8.41405 14.2658 8.53905 14.215 8.66405C14.4768 8.04687 14.8127 7.46874 15.2228 6.93749C15.1408 7.04296 15.0588 7.14843 14.9768 7.2539C15.383 6.73046 15.8557 6.2578 16.3791 5.85155C16.2736 5.93359 16.1682 6.01562 16.0627 6.09765C16.5939 5.6914 17.1721 5.35155 17.7893 5.08984C17.6643 5.14062 17.5393 5.1953 17.4143 5.24609C18.0471 4.98437 18.7072 4.80468 19.3869 4.71093C19.2502 4.73046 19.1096 4.74999 18.9729 4.76562C19.6564 4.67577 20.3439 4.67577 21.0275 4.76562C20.8908 4.74609 20.7502 4.72655 20.6135 4.71093C21.2932 4.80468 21.9533 4.98437 22.5861 5.24609C22.4611 5.1953 22.3361 5.14062 22.2111 5.08984C22.8283 5.35155 23.4065 5.68749 23.9377 6.09765C23.8322 6.01562 23.7268 5.93359 23.6213 5.85155C24.1447 6.2578 24.6174 6.73046 25.0236 7.2539C24.9416 7.14843 24.8596 7.04296 24.7775 6.93749C25.1838 7.46874 25.5236 8.04687 25.7854 8.66405C25.7346 8.53905 25.6799 8.41405 25.6291 8.28905C25.8908 8.92187 26.0705 9.58202 26.1643 10.2617C26.1447 10.125 26.1252 9.98437 26.1096 9.84765C26.1525 10.1875 26.1721 10.5312 26.176 10.875C26.1799 11.6914 26.8908 12.4766 27.7385 12.4375C28.5822 12.3984 29.3049 11.75 29.301 10.875C29.2932 9.0039 28.7307 7.08984 27.6291 5.5664C27.3322 5.15624 27.0158 4.7539 26.6643 4.39062C26.3088 4.02343 25.9182 3.70702 25.5119 3.39843C24.7736 2.83593 23.9494 2.42187 23.0744 2.10155C19.5471 0.808586 15.2932 1.96093 12.9064 4.86718C12.5783 5.26562 12.2658 5.67968 12.0002 6.12499C11.7346 6.5664 11.5275 7.03515 11.3361 7.51171C10.9768 8.39452 10.7932 9.33202 10.7189 10.2812C10.5744 12.1406 11.0588 14.082 12.0275 15.6758C12.9611 17.2148 14.3713 18.5351 16.0197 19.2812C16.5041 19.5 17.0002 19.7031 17.5158 19.8476C18.0275 19.9883 18.5471 20.0664 19.0744 20.1289C20.0354 20.2422 21.0158 20.1641 21.965 19.9726C25.5705 19.2383 28.59 16.1328 29.1486 12.4883C29.2307 11.957 29.2932 11.4258 29.2932 10.8867C29.2971 10.0703 28.5705 9.28515 27.7307 9.32421C26.8869 9.35155 26.176 9.99999 26.176 10.875ZM31.3596 35.3008C30.594 35.3008 29.8283 35.3008 29.0627 35.3008C27.2385 35.3008 25.4182 35.3008 23.594 35.3008C21.3986 35.3008 19.2033 35.3008 17.0041 35.3008C15.1096 35.3008 13.215 35.3008 11.3166 35.3008C10.4299 35.3008 9.54316 35.3086 8.65644 35.3008C8.55878 35.3008 8.46112 35.293 8.36737 35.2812C8.50409 35.3008 8.64472 35.3203 8.78144 35.3359C8.62519 35.3125 8.47675 35.2695 8.33222 35.2109C8.45722 35.2617 8.58222 35.3164 8.70722 35.3672C8.55097 35.3008 8.40644 35.2148 8.26972 35.1094C8.37519 35.1914 8.48065 35.2734 8.58612 35.3555C8.46894 35.2578 8.35956 35.1523 8.26581 35.0351C8.34784 35.1406 8.42987 35.2461 8.5119 35.3516C8.40644 35.2148 8.3244 35.0703 8.25409 34.9141C8.30487 35.0391 8.35956 35.1641 8.41034 35.2891C8.35175 35.1445 8.31269 34.9922 8.28534 34.8398C8.30487 34.9766 8.3244 35.1172 8.34003 35.2539C8.27753 34.7812 8.3205 34.2812 8.3205 33.8047C8.3205 33.2461 8.3205 32.6914 8.3205 32.1328C8.3205 31.7148 8.34394 31.3008 8.39862 30.8867C8.37909 31.0234 8.35956 31.1641 8.34394 31.3008C8.45331 30.5 8.66425 29.7148 8.98065 28.9687C8.92987 29.0937 8.87519 29.2187 8.8244 29.3437C9.12909 28.6328 9.51972 27.9648 9.99237 27.3516C9.91034 27.457 9.82831 27.5625 9.74628 27.668C10.2189 27.0625 10.7619 26.5156 11.3713 26.043C11.2658 26.125 11.1603 26.207 11.0549 26.2891C11.6682 25.8164 12.3361 25.4258 13.0471 25.1211C12.9221 25.1719 12.7971 25.2266 12.6721 25.2773C13.4182 24.9648 14.1994 24.75 15.0041 24.6406C14.8674 24.6601 14.7268 24.6797 14.59 24.6953C15.1682 24.6211 15.7424 24.6172 16.3244 24.6172C17.0393 24.6172 17.7541 24.6172 18.4689 24.6172C20.1369 24.6172 21.8049 24.6172 23.4729 24.6172C24.1174 24.6172 24.758 24.6133 25.4025 24.6953C25.2658 24.6758 25.1252 24.6562 24.9885 24.6406C25.7893 24.75 26.5744 24.9609 27.3205 25.2773C27.1955 25.2266 27.0705 25.1719 26.9455 25.1211C27.6565 25.4258 28.3244 25.8164 28.9377 26.2891C28.8322 26.207 28.7268 26.125 28.6213 26.043C29.2268 26.5156 29.7736 27.0586 30.2463 27.668C30.1643 27.5625 30.0822 27.457 30.0002 27.3516C30.4729 27.9648 30.8635 28.6328 31.1682 29.3437C31.1174 29.2187 31.0627 29.0937 31.0119 28.9687C31.3244 29.7148 31.5393 30.4961 31.6486 31.3008C31.6291 31.1641 31.6096 31.0234 31.594 30.8867C31.6682 31.4766 31.6721 32.0625 31.6721 32.6562C31.6721 33.3008 31.6721 33.9453 31.6721 34.5898C31.6721 34.8125 31.6799 35.0351 31.6525 35.2539C31.6721 35.1172 31.6916 34.9766 31.7072 34.8398C31.6838 34.9961 31.6408 35.1445 31.5822 35.2891C31.633 35.1641 31.6877 35.0391 31.7385 34.9141C31.6721 35.0703 31.5861 35.2148 31.4807 35.3516C31.5627 35.2461 31.6447 35.1406 31.7268 35.0351C31.6291 35.1523 31.5236 35.2617 31.4065 35.3555C31.5119 35.2734 31.6174 35.1914 31.7229 35.1094C31.5861 35.2148 31.4416 35.2969 31.2854 35.3672C31.4104 35.3164 31.5354 35.2617 31.6604 35.2109C31.5158 35.2695 31.3635 35.3086 31.2111 35.3359C31.3479 35.3164 31.4885 35.2969 31.6252 35.2812C31.5393 35.293 31.4494 35.2969 31.3596 35.3008C30.9572 35.3047 30.5432 35.4726 30.2541 35.7578C29.9846 36.0273 29.7775 36.4726 29.7971 36.8633C29.8361 37.6992 30.4846 38.4375 31.3596 38.4258C32.8791 38.4023 34.2151 37.4101 34.6604 35.9531C34.8361 35.375 34.7971 34.7539 34.7971 34.1601C34.7971 32.8008 34.8401 31.4531 34.6057 30.1055C34.2619 28.1328 33.2697 26.2773 31.9104 24.8203C30.551 23.3633 28.7229 22.293 26.7893 21.8164C25.6799 21.543 24.5627 21.5 23.4299 21.5C22.2658 21.5 21.1057 21.5 19.9416 21.5C18.7932 21.5 17.6486 21.5 16.5002 21.5C15.34 21.5 14.1877 21.5547 13.0588 21.8555C11.1408 22.3633 9.33612 23.4453 8.00409 24.9141C6.66034 26.3945 5.68768 28.2539 5.37128 30.2383C5.16034 31.5703 5.20331 32.9062 5.20331 34.25C5.20331 34.8672 5.16815 35.5117 5.39081 36.1016C5.67987 36.8594 6.14081 37.457 6.81659 37.9062C7.34393 38.2539 8.0119 38.4219 8.6369 38.4297C8.94159 38.4336 9.24628 38.4297 9.55097 38.4297C10.3322 38.4297 11.1096 38.4297 11.8908 38.4297C13.0002 38.4297 14.1057 38.4297 15.215 38.4297C16.5041 38.4297 17.7932 38.4297 19.0822 38.4297C20.4064 38.4297 21.7268 38.4297 23.051 38.4297C24.2619 38.4297 25.469 38.4297 26.6799 38.4297C27.6291 38.4297 28.5783 38.4297 29.5236 38.4297C30.0666 38.4297 30.6096 38.4297 31.1525 38.4297C31.2229 38.4297 31.2932 38.4297 31.3635 38.4297C32.1799 38.4297 32.9651 37.7109 32.926 36.8672C32.8869 36.0156 32.2385 35.3008 31.3596 35.3008Z" fill="#FFFFFE"/>
</svg>
