<svg width="40" height="40" viewBox="0 0 40 40" fill="none" xmlns="http://www.w3.org/2000/svg">
<path d="M26.1755 10.8749C26.1755 11.2187 26.1521 11.5624 26.1091 11.9023C26.1286 11.7656 26.1481 11.6249 26.1638 11.4882C26.07 12.1679 25.8903 12.8281 25.6286 13.4609C25.6794 13.3359 25.7341 13.2109 25.7849 13.0859C25.5231 13.7031 25.1872 14.2812 24.7771 14.8124C24.8591 14.707 24.9411 14.6015 25.0231 14.496C24.6169 15.0195 24.1442 15.4921 23.6208 15.8984C23.7263 15.8163 23.8317 15.7343 23.9372 15.6523C23.406 16.0585 22.8278 16.3984 22.2106 16.6601C22.3356 16.6093 22.4606 16.5546 22.5856 16.5038C21.9528 16.7656 21.2927 16.9452 20.613 17.039C20.7497 17.0195 20.8903 16.9999 21.0271 16.9843C20.3435 17.0741 19.656 17.0741 18.9724 16.9843C19.1091 17.0038 19.2497 17.0234 19.3864 17.039C18.7067 16.9452 18.0466 16.7656 17.4138 16.5038C17.5388 16.5546 17.6638 16.6093 17.7888 16.6601C17.1716 16.3984 16.5935 16.0624 16.0622 15.6523C16.1677 15.7343 16.2731 15.8163 16.3786 15.8984C15.8552 15.4921 15.3825 15.0195 14.9763 14.496C15.0583 14.6015 15.1403 14.707 15.2224 14.8124C14.8161 14.2812 14.4763 13.7031 14.2145 13.0859C14.2653 13.2109 14.32 13.3359 14.3708 13.4609C14.1091 12.8281 13.9294 12.1679 13.8356 11.4882C13.8552 11.6249 13.8747 11.7656 13.8903 11.9023C13.8005 11.2187 13.8005 10.5312 13.8903 9.84759C13.8708 9.98431 13.8513 10.1249 13.8356 10.2617C13.9294 9.58196 14.1091 8.92181 14.3708 8.28899C14.32 8.41399 14.2653 8.53899 14.2145 8.66399C14.4763 8.04681 14.8122 7.46868 15.2224 6.93743C15.1403 7.0429 15.0583 7.14837 14.9763 7.25384C15.3825 6.7304 15.8552 6.25774 16.3786 5.85149C16.2731 5.93352 16.1677 6.01556 16.0622 6.09759C16.5935 5.69134 17.1716 5.35149 17.7888 5.08977C17.6638 5.14056 17.5388 5.19524 17.4138 5.24602C18.0466 4.98431 18.7067 4.80462 19.3864 4.71087C19.2497 4.7304 19.1091 4.74993 18.9724 4.76556C19.656 4.67571 20.3435 4.67571 21.0271 4.76556C20.8903 4.74602 20.7497 4.72649 20.613 4.71087C21.2927 4.80462 21.9528 4.98431 22.5856 5.24602C22.4606 5.19524 22.3356 5.14056 22.2106 5.08977C22.8278 5.35149 23.406 5.68743 23.9372 6.09759C23.8317 6.01556 23.7263 5.93352 23.6208 5.85149C24.1442 6.25774 24.6169 6.7304 25.0231 7.25384C24.9411 7.14837 24.8591 7.0429 24.7771 6.93743C25.1833 7.46868 25.5231 8.04681 25.7849 8.66399C25.7341 8.53899 25.6794 8.41399 25.6286 8.28899C25.8903 8.92181 26.07 9.58196 26.1638 10.2617C26.1442 10.1249 26.1247 9.98431 26.1091 9.84759C26.1521 10.1874 26.1716 10.5312 26.1755 10.8749C26.1794 11.6913 26.8903 12.4765 27.738 12.4374C28.5817 12.3984 29.3044 11.7499 29.3005 10.8749C29.2927 9.00384 28.7302 7.08977 27.6286 5.56634C27.3317 5.15618 27.0153 4.75384 26.6638 4.39056C26.3083 4.02337 25.9177 3.70696 25.5114 3.39837C24.7731 2.83587 23.9489 2.42181 23.0739 2.10149C19.5466 0.808525 15.2927 1.96087 12.906 4.86712C12.5778 5.26556 12.2653 5.67962 11.9997 6.12493C11.7341 6.56634 11.527 7.03509 11.3356 7.51165C10.9763 8.39446 10.7927 9.33196 10.7184 10.2812C10.5739 12.1406 11.0583 14.082 12.027 15.6757C12.9606 17.2148 14.3708 18.5351 16.0192 19.2812C16.5036 19.4999 16.9997 19.7031 17.5153 19.8476C18.0271 19.9882 18.5466 20.0663 19.0739 20.1288C20.0349 20.2421 21.0153 20.164 21.9646 19.9726C25.57 19.2382 28.5896 16.1327 29.1482 12.4882C29.2302 11.957 29.2927 11.4257 29.2927 10.8867C29.2966 10.0702 28.57 9.28509 27.7302 9.32415C26.8864 9.35149 26.1755 9.99993 26.1755 10.8749ZM31.3591 35.3007C30.5935 35.3007 29.8278 35.3007 29.0622 35.3007C27.238 35.3007 25.4177 35.3007 23.5935 35.3007C21.3981 35.3007 19.2028 35.3007 17.0036 35.3007C15.1091 35.3007 13.2145 35.3007 11.3161 35.3007C10.4294 35.3007 9.54267 35.3085 8.65595 35.3007C8.55829 35.3007 8.46063 35.2929 8.36688 35.2812C8.5036 35.3007 8.64423 35.3202 8.78095 35.3359C8.6247 35.3124 8.47626 35.2695 8.33173 35.2109C8.45673 35.2617 8.58173 35.3163 8.70673 35.3671C8.55048 35.3007 8.40595 35.2148 8.26923 35.1093C8.3747 35.1913 8.48017 35.2734 8.58564 35.3554C8.46845 35.2577 8.35907 35.1523 8.26532 35.0351C8.34735 35.1406 8.42938 35.246 8.51142 35.3515C8.40595 35.2148 8.32392 35.0702 8.2536 34.914C8.30438 35.039 8.35907 35.164 8.40985 35.289C8.35126 35.1445 8.3122 34.9921 8.28485 34.8398C8.30438 34.9765 8.32392 35.1171 8.33954 35.2538C8.27704 34.7812 8.32001 34.2812 8.32001 33.8046C8.32001 33.246 8.32001 32.6913 8.32001 32.1327C8.32001 31.7148 8.34345 31.3007 8.39813 30.8867C8.3786 31.0234 8.35907 31.164 8.34345 31.3007C8.45282 30.4999 8.66376 29.7148 8.98017 28.9687C8.92939 29.0937 8.8747 29.2187 8.82392 29.3437C9.1286 28.6327 9.51923 27.9648 9.99189 27.3515C9.90986 27.457 9.82782 27.5624 9.74579 27.6679C10.2184 27.0624 10.7614 26.5156 11.3708 26.0429C11.2653 26.1249 11.1599 26.207 11.0544 26.289C11.6677 25.8163 12.3356 25.4257 13.0466 25.121C12.9216 25.1718 12.7966 25.2265 12.6716 25.2773C13.4177 24.9648 14.1989 24.7499 15.0036 24.6406C14.8669 24.6601 14.7263 24.6796 14.5895 24.6952C15.1677 24.621 15.7419 24.6171 16.3239 24.6171C17.0388 24.6171 17.7536 24.6171 18.4685 24.6171C20.1364 24.6171 21.8044 24.6171 23.4724 24.6171C24.1169 24.6171 24.7575 24.6132 25.4021 24.6952C25.2653 24.6757 25.1247 24.6562 24.988 24.6406C25.7888 24.7499 26.5739 24.9609 27.32 25.2773C27.195 25.2265 27.07 25.1718 26.945 25.121C27.656 25.4257 28.3239 25.8163 28.9372 26.289C28.8317 26.207 28.7263 26.1249 28.6208 26.0429C29.2263 26.5156 29.7732 27.0585 30.2458 27.6679C30.1638 27.5624 30.0817 27.457 29.9997 27.3515C30.4724 27.9648 30.863 28.6327 31.1677 29.3437C31.1169 29.2187 31.0622 29.0937 31.0114 28.9687C31.3239 29.7148 31.5388 30.496 31.6482 31.3007C31.6286 31.164 31.6091 31.0234 31.5935 30.8867C31.6677 31.4765 31.6716 32.0624 31.6716 32.6562C31.6716 33.3007 31.6716 33.9452 31.6716 34.5898C31.6716 34.8124 31.6794 35.0351 31.6521 35.2538C31.6716 35.1171 31.6911 34.9765 31.7068 34.8398C31.6833 34.996 31.6403 35.1445 31.5817 35.289C31.6325 35.164 31.6872 35.039 31.738 34.914C31.6716 35.0702 31.5857 35.2148 31.4802 35.3515C31.5622 35.246 31.6443 35.1406 31.7263 35.0351C31.6286 35.1523 31.5232 35.2616 31.406 35.3554C31.5114 35.2734 31.6169 35.1913 31.7224 35.1093C31.5857 35.2148 31.4411 35.2968 31.2849 35.3671C31.4099 35.3163 31.5349 35.2617 31.6599 35.2109C31.5153 35.2695 31.363 35.3085 31.2107 35.3359C31.3474 35.3163 31.488 35.2968 31.6247 35.2812C31.5388 35.2929 31.4489 35.2968 31.3591 35.3007C30.9567 35.3046 30.5427 35.4726 30.2536 35.7577C29.9841 36.0273 29.7771 36.4726 29.7966 36.8632C29.8357 37.6992 30.4841 38.4374 31.3591 38.4257C32.8786 38.4023 34.2146 37.4101 34.6599 35.9531C34.8357 35.3749 34.7966 34.7538 34.7966 34.1601C34.7966 32.8007 34.8396 31.4531 34.6052 30.1054C34.2614 28.1327 33.2693 26.2773 31.9099 24.8202C30.5505 23.3632 28.7224 22.2929 26.7888 21.8163C25.6794 21.5429 24.5622 21.4999 23.4294 21.4999C22.2653 21.4999 21.1052 21.4999 19.9411 21.4999C18.7927 21.4999 17.6481 21.4999 16.4997 21.4999C15.3395 21.4999 14.1872 21.5546 13.0583 21.8554C11.1403 22.3632 9.33564 23.4452 8.0036 24.914C6.65985 26.3945 5.68719 28.2538 5.37079 30.2382C5.15985 31.5702 5.20282 32.9062 5.20282 34.2499C5.20282 34.8671 5.16766 35.5117 5.39032 36.1015C5.67938 36.8593 6.14032 37.457 6.8161 37.9062C7.34345 38.2538 8.01142 38.4218 8.63642 38.4296C8.9411 38.4335 9.24579 38.4296 9.55048 38.4296C10.3317 38.4296 11.1091 38.4296 11.8903 38.4296C12.9997 38.4296 14.1052 38.4296 15.2145 38.4296C16.5036 38.4296 17.7927 38.4296 19.0817 38.4296C20.406 38.4296 21.7263 38.4296 23.0505 38.4296C24.2614 38.4296 25.4685 38.4296 26.6794 38.4296C27.6286 38.4296 28.5778 38.4296 29.5232 38.4296C30.0661 38.4296 30.6091 38.4296 31.1521 38.4296C31.2224 38.4296 31.2927 38.4296 31.363 38.4296C32.1794 38.4296 32.9646 37.7109 32.9255 36.8671C32.8864 36.0156 32.238 35.3007 31.3591 35.3007Z" fill="#FFFFFE"/>
</svg>
